<svg id="Search_Icon" data-name="Search Icon" xmlns="http://www.w3.org/2000/svg" width="22" height="22" viewBox="0 0 22 22">
  <path id="Path_2" data-name="Path 2" d="M2.75,9.625A6.808,6.808,0,0,1,9.625,2.75,6.808,6.808,0,0,1,16.5,9.625,6.808,6.808,0,0,1,9.625,16.5,6.808,6.808,0,0,1,2.75,9.625ZM19.663,21.587a1.361,1.361,0,1,0,1.925-1.925L17.325,15.4A9.414,9.414,0,0,0,19.25,9.625,9.566,9.566,0,0,0,9.625,0,9.566,9.566,0,0,0,0,9.625,9.566,9.566,0,0,0,9.625,19.25,9.414,9.414,0,0,0,15.4,17.325Z" fill="#fff"/>
</svg>
