<svg xmlns="http://www.w3.org/2000/svg" xmlns:xlink="http://www.w3.org/1999/xlink" width="76" height="76" viewBox="0 0 76 76">
  <defs>
    <filter id="Ellipse_186" x="0" y="0" width="76" height="76" filterUnits="userSpaceOnUse">
      <feOffset dy="3" input="SourceAlpha"/>
      <feGaussianBlur stdDeviation="3" result="blur"/>
      <feFlood flood-opacity="0.161"/>
      <feComposite operator="in" in2="blur"/>
      <feComposite in="SourceGraphic"/>
    </filter>
    <filter id="Path_219" x="5.98" y="2.751" width="64.346" height="64.346" filterUnits="userSpaceOnUse">
      <feOffset dy="3" input="SourceAlpha"/>
      <feGaussianBlur stdDeviation="3" result="blur-2"/>
      <feFlood flood-color="#ffb932" flood-opacity="0.161"/>
      <feComposite operator="in" in2="blur-2"/>
      <feComposite in="SourceGraphic"/>
    </filter>
  </defs>
  <g id="Actions_Open_Icon" data-name="Actions Open Icon" transform="translate(-294 -93)">
    <g transform="matrix(1, 0, 0, 1, 294, 93)" filter="url(#Ellipse_186)">
      <circle id="Ellipse_186-2" data-name="Ellipse 186" cx="29" cy="29" r="29" transform="translate(9 6)" fill="#54f2d1"/>
    </g>
    <g id="Component_74_4" data-name="Component 74 – 4" transform="translate(355.865 127.573) rotate(135)">
      <g transform="matrix(-0.71, -0.71, 0.71, -0.71, 19.3, 68.19)" filter="url(#Path_219)">
        <path id="Path_219-2" data-name="Path 219" d="M895.036-10389.816v11.49s-.54,2.7-2.364,3.14-23.666,0-23.666,0-1.728.2-3.321-2.237c-.444-.681-.436-5.747-.436-5.747v-18.513a4.085,4.085,0,0,1,3.911-3.009c3.213-.077,11.081,0,11.081,0" transform="translate(-6686.23 -7937.17) rotate(135)" fill="none" stroke="#fff" stroke-linecap="round" stroke-width="3"/>
      </g>
      <line id="Line_205" data-name="Line 205" y1="12" x2="12" transform="translate(22)" fill="rgba(0,0,0,0)" stroke="#fff" stroke-linecap="round" stroke-width="3"/>
      <line id="Line_206" data-name="Line 206" y1="12" transform="translate(34)" fill="none" stroke="#fff" stroke-linecap="round" stroke-width="3"/>
      <line id="Line_207" data-name="Line 207" x2="12" transform="translate(22)" fill="none" stroke="#fff" stroke-linecap="round" stroke-width="3"/>
      <line id="Line_208" data-name="Line 208" y1="2" x2="2" transform="translate(16 16)" fill="none" stroke="#fff" stroke-linecap="round" stroke-width="3"/>
      <line id="Line_209" data-name="Line 209" y1="2" x2="2" transform="translate(10.408 22)" fill="none" stroke="#fff" stroke-linecap="round" stroke-width="3"/>
    </g>
  </g>
</svg>
