<svg id="Night_Icon" data-name="Night Icon" xmlns="http://www.w3.org/2000/svg" width="20.358" height="23.358" viewBox="0 0 20.358 23.358">
  <path id="Night_Icon-2" data-name="Night Icon" d="M7.934-.094a7,7,0,0,0-1.6.206,7.293,7.293,0,0,0-1.5.554,7.914,7.914,0,0,0-1.358.864A8.675,8.675,0,0,0,2.292,2.667,9.423,9.423,0,0,0,1.307,4.04a10,10,0,0,0-.75,1.571A10.434,10.434,0,0,0,.074,7.344,10.773,10.773,0,0,0-.109,9.2,10.642,10.642,0,0,0,.03,11.052a10.074,10.074,0,0,0,.442,1.721,9.48,9.48,0,0,0,.713,1.554,8.81,8.81,0,0,0,.953,1.35A8.075,8.075,0,0,0,3.3,16.787a7.413,7.413,0,0,0,1.338.832,6.961,6.961,0,0,0,1.483.518,6.876,6.876,0,0,0,1.6.168,7.02,7.02,0,0,0,2.356-.439C6.747,16.707,4.545,13.2,4.593,9.144S6.927,1.528,10.28.289A6.856,6.856,0,0,0,7.934-.094Z" transform="translate(0.144 10.336) rotate(-45)" fill="#fff"/>
</svg>
