<svg xmlns="http://www.w3.org/2000/svg" xmlns:xlink="http://www.w3.org/1999/xlink" width="208.317" height="286.438" viewBox="0 0 208.317 286.438">
  <defs>
    <filter id="Rectangle_461" x="0" y="0" width="208.317" height="286.438" filterUnits="userSpaceOnUse">
      <feOffset dy="3" input="SourceAlpha"/>
      <feGaussianBlur stdDeviation="3" result="blur"/>
      <feFlood flood-opacity="0.251"/>
      <feComposite operator="in" in2="blur"/>
      <feComposite in="SourceGraphic"/>
    </filter>
  </defs>
  <g transform="matrix(1, 0, 0, 1, 0, 0)" filter="url(#Rectangle_461)">
    <g id="Rectangle_461-2" data-name="Rectangle 461" transform="translate(9 6)" fill="#dadada" stroke="#adadad" stroke-width="0.5">
      <path d="M0,0H190.317a0,0,0,0,1,0,0V248.438a20,20,0,0,1-20,20H20a20,20,0,0,1-20-20V0A0,0,0,0,1,0,0Z" stroke="none"/>
      <path d="M.25.25H190.067a0,0,0,0,1,0,0V248.438a19.75,19.75,0,0,1-19.75,19.75H20A19.75,19.75,0,0,1,.25,248.438V.25A0,0,0,0,1,.25.25Z" fill="none"/>
    </g>
  </g>
</svg>
