<svg id="Schedule_Icon_Watermark" data-name="Schedule Icon Watermark" xmlns="http://www.w3.org/2000/svg" width="13.175" height="13.78" viewBox="0 0 13.175 13.78">
  <path id="Path_95" data-name="Path 95" d="M5.928,8.2H7.392V9.579H5.928ZM16.175,4.756V14.4a1.427,1.427,0,0,1-1.464,1.378H4.464A1.422,1.422,0,0,1,3,14.4l.007-9.646A1.416,1.416,0,0,1,4.464,3.378H5.2V2H6.66V3.378h5.856V2h1.464V3.378h.732A1.427,1.427,0,0,1,16.175,4.756ZM4.464,6.134H14.711V4.756H4.464ZM14.711,14.4V7.512H4.464V14.4ZM11.783,9.579h1.464V8.2H11.783Zm-2.928,0h1.464V8.2H8.856Z" transform="translate(-3 -2)" fill="#c4c4c4"/>
</svg>
