<svg id="Schedule_Icon_Black" data-name="Schedule Icon Black" xmlns="http://www.w3.org/2000/svg" width="70.483" height="73.719" viewBox="0 0 70.483 73.719">
  <path id="Path_95" data-name="Path 95" d="M18.663,35.173h7.831v7.372H18.663Zm54.82-18.43v51.6a7.635,7.635,0,0,1-7.831,7.372H10.831A7.61,7.61,0,0,1,3,68.347l.039-51.6a7.575,7.575,0,0,1,7.792-7.372h3.916V2h7.831V9.372H53.9V2h7.832V9.372h3.916A7.635,7.635,0,0,1,73.483,16.744ZM10.831,24.116h54.82V16.744H10.831Zm54.82,44.231V31.487H10.831V68.347Zm-15.663-25.8H57.82V35.173H49.989Zm-15.663,0h7.831V35.173H34.326Z" transform="translate(-3 -2)"/>
</svg>
