<svg id="Schedule_Icon_White" data-name="Schedule Icon White" xmlns="http://www.w3.org/2000/svg" width="34.997" height="34.997" viewBox="0 0 34.997 34.997">
  <path id="Path_94" data-name="Path 94" d="M0,0H35V35H0Z" fill="none"/>
  <path id="Path_95" data-name="Path 95" d="M8.111,14.149h2.555v2.7H8.111ZM26,7.4V26.3A2.638,2.638,0,0,1,23.443,29H5.555A2.63,2.63,0,0,1,3,26.3L3.013,7.4A2.62,2.62,0,0,1,5.555,4.7H6.833V2H9.388V4.7H19.61V2h2.555V4.7h1.278A2.638,2.638,0,0,1,26,7.4ZM5.555,10.1H23.443V7.4H5.555ZM23.443,26.3V12.8H5.555V26.3Zm-5.111-9.449h2.555v-2.7H18.332Zm-5.111,0h2.555v-2.7H13.221Z" transform="translate(2.999 1.999)" fill="#fff"/>
</svg>
