<svg xmlns="http://www.w3.org/2000/svg" width="25.653" height="26.769" viewBox="0 0 25.653 26.769">
  <g id="Settings_Icon_Not_Active" data-name="Settings Icon Not Active" transform="translate(0 2.543)">
    <g id="_Color" data-name=" ↳Color" transform="translate(0 0.457)" fill="none" stroke-miterlimit="10">
      <path d="M15.465,23.769H10.188a.671.671,0,0,1-.66-.569l-.495-3.547a9.609,9.609,0,0,1-2.227-1.3L3.525,19.688a.714.714,0,0,1-.228.037.65.65,0,0,1-.58-.339L.078,14.752A.7.7,0,0,1,.243,13.9L3.03,11.69a8.568,8.568,0,0,1-.1-1.305A8.417,8.417,0,0,1,3.047,9.08L.26,6.872a.654.654,0,0,1-.166-.853L2.733,1.383a.658.658,0,0,1,.573-.345.638.638,0,0,1,.235.045L6.824,2.421A9.919,9.919,0,0,1,9.05,1.116l.495-3.547A.645.645,0,0,1,10.188-3h5.277a.662.662,0,0,1,.66.569l.495,3.547a9.641,9.641,0,0,1,2.227,1.305l3.281-1.338a.71.71,0,0,1,.229-.038.65.65,0,0,1,.58.338l2.639,4.635a.7.7,0,0,1-.165.853L22.622,9.08a8.429,8.429,0,0,1,.1,1.305,11.048,11.048,0,0,1-.083,1.305L25.393,13.9a.656.656,0,0,1,.166.854l-2.639,4.634a.656.656,0,0,1-.573.346.638.638,0,0,1-.235-.045l-3.282-1.339a9.851,9.851,0,0,1-2.226,1.3l-.5,3.547A.63.63,0,0,1,15.465,23.769ZM12.4,7a3.451,3.451,0,1,0,3.4,3.45A3.43,3.43,0,0,0,12.4,7Z" stroke="none"/>
      <path d="M 14.2885570526123 21.76900100708008 L 14.78074073791504 18.24225997924805 L 15.83953094482422 17.80484008789062 C 16.43379020690918 17.55932998657227 17.02960014343262 17.20858001708984 17.61038970947266 16.76235008239746 L 18.52108955383301 16.06265068054199 L 21.75821495056152 17.38340950012207 L 23.25786781311035 14.74981117248535 L 20.52214050292969 12.55675983428955 L 20.65245056152344 11.45516014099121 C 20.69885063171387 11.06292057037354 20.72140121459961 10.71290016174316 20.72140121459961 10.38510036468506 C 20.72140121459961 10.04043006896973 20.69626998901367 9.705960273742676 20.6467113494873 9.390970230102539 L 20.46523094177246 8.237640380859375 L 23.27084541320801 6.014528751373291 L 21.774658203125 3.386505126953125 L 18.53462982177734 4.707930088043213 L 17.62310028076172 4.003570079803467 C 17.04689979553223 3.558320283889771 16.46821022033691 3.218180179595947 15.85397052764893 2.963730335235596 L 14.79676055908203 2.525780200958252 L 14.3047571182251 -0.9996997714042664 L 11.36414432525635 -0.9996997714042664 L 10.87214088439941 2.52577018737793 L 9.814940452575684 2.963730335235596 C 9.219810485839844 3.210270166397095 8.622960090637207 3.561600208282471 8.040980339050293 4.007970333099365 L 7.130820274353027 4.706040382385254 L 3.894302129745483 3.386401653289795 L 2.398244857788086 6.014196872711182 L 5.203620433807373 8.23783016204834 L 5.022200584411621 9.39094066619873 C 4.96103048324585 9.77970027923584 4.931300640106201 10.10490036010742 4.931300640106201 10.38510036468506 C 4.931300640106201 10.72418022155762 4.957170486450195 11.068190574646 5.006110668182373 11.37995052337646 L 5.18712043762207 12.53313064575195 L 2.381693601608276 14.75518417358398 L 3.878234386444092 17.3833179473877 L 7.117810249328613 16.06118011474609 L 8.029580116271973 16.76572036743164 C 8.607710838317871 17.21245002746582 9.185830116271973 17.5523509979248 9.796980857849121 17.80484008789062 L 10.85576057434082 18.24226951599121 L 11.34794425964355 21.76900100708008 L 14.2885570526123 21.76900100708008 M 12.40110015869141 5.000200271606445 C 15.37928009033203 5.000200271606445 17.80220031738281 7.444930076599121 17.80220031738281 10.44990062713623 C 17.80220031738281 13.45536994934082 15.37928009033203 15.90050029754639 12.40110015869141 15.90050029754639 C 9.422920227050781 15.90050029754639 7.000000476837158 13.45536994934082 7.000000476837158 10.44990062713623 C 7.000000476837158 7.444930076599121 9.422920227050781 5.000200271606445 12.40110015869141 5.000200271606445 M 15.46470069885254 23.76900100708008 L 10.18800067901611 23.76900100708008 C 9.860180854797363 23.76900100708008 9.595060348510742 23.54042053222656 9.528300285339355 23.2002010345459 L 9.033300399780273 19.65329933166504 C 8.255390167236328 19.33191108703613 7.52686071395874 18.9047794342041 6.806700706481934 18.34830093383789 L 3.5253005027771 19.6875 C 3.451430559158325 19.71233940124512 3.374680519104004 19.72492980957031 3.297140598297119 19.72492980957031 C 3.049880504608154 19.72493934631348 2.833040475845337 19.59823989868164 2.717100381851196 19.38599967956543 L 0.07830048352479935 14.7519006729126 C -0.07179951667785645 14.46444034576416 -0.0009895162656903267 14.09727001190186 0.2430004775524139 13.89780044555664 L 3.030300378799438 11.69010066986084 C 2.965410470962524 11.27672004699707 2.931300401687622 10.82513999938965 2.931300401687622 10.38510036468506 C 2.931300401687622 9.999690055847168 2.968980550765991 9.572820663452148 3.046500444412231 9.080100059509277 L 0.2601004838943481 6.871500015258789 C -0.002949516288936138 6.671300411224365 -0.0710495188832283 6.320440292358398 0.09450048208236694 6.01830005645752 L 2.733300447463989 1.383300185203552 C 2.850630521774292 1.170310258865356 3.070330381393433 1.038000226020813 3.306650400161743 1.038000226020813 C 3.38718056678772 1.038000226020813 3.466200590133667 1.053040266036987 3.541500568389893 1.082700252532959 L 6.823800563812256 2.421000242233276 C 7.54455041885376 1.868200182914734 8.293720245361328 1.429090261459351 9.049500465393066 1.116000175476074 L 9.544500350952148 -2.430899858474731 C 9.594020843505859 -2.765799760818481 9.858630180358887 -2.999699831008911 10.18800067901611 -2.999699831008911 L 15.46470069885254 -2.999699831008911 C 15.79822063446045 -2.999699831008911 16.07567024230957 -2.760479688644409 16.1244010925293 -2.430899858474731 L 16.61940002441406 1.116000175476074 C 17.39974021911621 1.439260244369507 18.12827110290527 1.866390228271484 18.84600067138672 2.421000242233276 L 22.12740135192871 1.082700252532959 C 22.20137977600098 1.057590246200562 22.27830123901367 1.044870257377625 22.35606956481934 1.044870257377625 C 22.60284042358398 1.044870257377625 22.81949043273926 1.171390175819397 22.93560028076172 1.383300185203552 L 25.57439994812012 6.01830005645752 C 25.72490119934082 6.306540012359619 25.65409088134766 6.673320293426514 25.40970039367676 6.871500015258789 L 22.62240028381348 9.080100059509277 C 22.6882209777832 9.498410224914551 22.72140121459961 9.937789916992188 22.72140121459961 10.38510036468506 C 22.72140121459961 10.79219055175781 22.69432067871094 11.21905994415283 22.63860130310059 11.69010066986084 L 25.39260101318359 13.89780044555664 C 25.65542030334473 14.09804058074951 25.72352027893066 14.44925975799561 25.55820083618164 14.7519006729126 L 22.91940116882324 19.38599967956543 C 22.80276107788086 19.59951972961426 22.58307075500488 19.73217010498047 22.34605979919434 19.73217964172363 C 22.26547050476074 19.73217964172363 22.18645095825195 19.71714973449707 22.1112003326416 19.6875 L 18.82890129089355 18.34830093383789 C 18.10848045349121 18.90180969238281 17.35931968688965 19.34091949462891 16.60320091247559 19.65329933166504 L 16.10820007324219 23.2002010345459 C 16.07542037963867 23.52976989746094 15.80479049682617 23.76900100708008 15.46470069885254 23.76900100708008 Z M 12.40110015869141 7.000200271606445 C 10.52573013305664 7.000200271606445 9.000000953674316 8.547730445861816 9.000000953674316 10.44990062713623 C 9.000000953674316 12.35257053375244 10.52573013305664 13.90050029754639 12.40110015869141 13.90050029754639 C 14.27647018432617 13.90050029754639 15.80220031738281 12.35257053375244 15.80220031738281 10.44990062713623 C 15.80220031738281 8.547730445861816 14.27647018432617 7.000200271606445 12.40110015869141 7.000200271606445 Z" stroke="none" fill="#9db5c2"/>
    </g>
  </g>
</svg>
