<svg xmlns="http://www.w3.org/2000/svg" xmlns:xlink="http://www.w3.org/1999/xlink" width="35.833" height="32" viewBox="0 0 35.833 32">
  <defs>
    <style>
      .cls-1 {
        fill: #00bcff;
      }

      .cls-2 {
        fill: #fff;
      }

      .cls-3 {
        fill: none;
        stroke: #fff;
      }

      .cls-4 {
        filter: url(#Rectangle_461);
      }
    </style>
    <filter id="Rectangle_461" x="3.833" y="0" width="32" height="32" filterUnits="userSpaceOnUse">
      <feOffset dy="3" input="SourceAlpha"/>
      <feGaussianBlur stdDeviation="3" result="blur"/>
      <feFlood flood-opacity="0.251"/>
      <feComposite operator="in" in2="blur"/>
      <feComposite in="SourceGraphic"/>
    </filter>
  </defs>
  <g id="Shift_View_Icon_Alt_2" data-name="Shift View Icon Alt 2" transform="translate(0 6)">
    <g id="icon_navigation_chevron_left_24px" data-name="icon/navigation/chevron_left_24px" transform="translate(0 3)">
      <path id="_Color" data-name=" ↳Color" class="cls-1" d="M4.9.934,3.968,0,0,3.973,3.968,7.947,4.9,7.013,1.872,3.973Z" transform="translate(0 0)"/>
    </g>
    <g id="Shift_View_Icon_Alt_2-2" data-name="Shift View Icon Alt 2" transform="translate(-119.167 -14)">
      <g class="cls-4" transform="matrix(1, 0, 0, 1, 119.17, 8)">
        <rect id="Rectangle_461-2" data-name="Rectangle 461" class="cls-1" width="14" height="14" rx="4" transform="translate(12.83 6)"/>
      </g>
      <g id="Group_253" data-name="Group 253" transform="translate(133.146 16.293)">
        <circle id="Ellipse_131" data-name="Ellipse 131" class="cls-2" cx="1.146" cy="1.146" r="1.146"/>
        <path id="Path_90" data-name="Path 90" class="cls-3" d="M0,0H3.426" transform="translate(1.926 1.146)"/>
        <circle id="Ellipse_132" data-name="Ellipse 132" class="cls-2" cx="1.146" cy="1.146" r="1.146" transform="translate(4.586)"/>
        <path id="Path_91" data-name="Path 91" class="cls-3" d="M0,0H3.426" transform="translate(4.212 4.936)"/>
        <circle id="Ellipse_131-2" data-name="Ellipse 131" class="cls-2" cx="1.146" cy="1.146" r="1.146" transform="translate(2.293 3.822)"/>
        <circle id="Ellipse_132-2" data-name="Ellipse 132" class="cls-2" cx="1.146" cy="1.146" r="1.146" transform="translate(6.879 3.822)"/>
        <path id="Path_90-2" data-name="Path 90" class="cls-3" d="M0,0H3.426" transform="translate(5.926 8.79)"/>
        <circle id="Ellipse_131-3" data-name="Ellipse 131" class="cls-2" cx="1.146" cy="1.146" r="1.146" transform="translate(3.822 7.643)"/>
        <circle id="Ellipse_132-3" data-name="Ellipse 132" class="cls-2" cx="1.146" cy="1.146" r="1.146" transform="translate(9.172 7.643)"/>
      </g>
    </g>
  </g>
</svg>
