<svg xmlns="http://www.w3.org/2000/svg" width="24" height="25.044" viewBox="0 0 24 25.044">
  <g id="Settings_Icon_Blue" data-name="Settings Icon Blue" transform="translate(0 2.543)">
    <g id="_Color" data-name=" ↳Color" transform="translate(0 -2.543)" fill="none" stroke-miterlimit="10">
      <path d="M14.468,25.044H9.532a.628.628,0,0,1-.617-.532l-.463-3.318a8.99,8.99,0,0,1-2.083-1.221L3.3,21.225a.668.668,0,0,1-.213.035.608.608,0,0,1-.543-.317L.073,16.608a.655.655,0,0,1,.154-.8l2.608-2.065a8.016,8.016,0,0,1-.093-1.221A7.875,7.875,0,0,1,2.85,11.3L.244,9.235a.612.612,0,0,1-.155-.8L2.557,4.1a.616.616,0,0,1,.536-.323.6.6,0,0,1,.22.042L6.384,5.071A9.28,9.28,0,0,1,8.466,3.85L8.93.532A.6.6,0,0,1,9.532,0h4.937a.62.62,0,0,1,.617.532l.463,3.318a9.02,9.02,0,0,1,2.083,1.221L20.7,3.819a.664.664,0,0,1,.214-.035.608.608,0,0,1,.542.317l2.469,4.336a.653.653,0,0,1-.154.8L21.165,11.3a7.886,7.886,0,0,1,.093,1.221,10.336,10.336,0,0,1-.077,1.221l2.577,2.065a.614.614,0,0,1,.155.8l-2.469,4.335a.614.614,0,0,1-.536.324.6.6,0,0,1-.22-.042l-3.071-1.253a9.216,9.216,0,0,1-2.082,1.221l-.463,3.318A.59.59,0,0,1,14.468,25.044ZM11.6,9.355a3.228,3.228,0,1,0,3.182,3.227A3.209,3.209,0,0,0,11.6,9.355Z" stroke="none"/>
      <path d="M 13.2557897567749 23.04367637634277 L 13.71096515655518 19.78215789794922 L 14.76975536346436 19.3447380065918 C 15.3152551651001 19.1193675994873 15.86280536651611 18.79691696166992 16.39719581604004 18.3863468170166 L 17.30789566040039 17.68664741516113 L 20.30020141601562 18.90752601623535 L 21.59283447265625 16.63748931884766 L 19.06341552734375 14.60981750488281 L 19.19373512268066 13.50820732116699 C 19.23654556274414 13.14630699157715 19.25735473632812 12.82379722595215 19.25735473632812 12.52225685119629 C 19.25735473632812 12.20647716522217 19.234375 11.90029716491699 19.18904495239258 11.61223697662354 L 19.00756454467773 10.45889759063721 L 21.60466575622559 8.400995254516602 L 20.3155689239502 6.136716365814209 L 17.32032585144043 7.358307361602783 L 16.40880584716797 6.653947353363037 C 15.8788948059082 6.244477272033691 15.34713459014893 5.931847095489502 14.78313541412354 5.698207378387451 L 13.7259349822998 5.260257244110107 L 13.27094554901123 1.99999725818634 L 10.74412441253662 1.99999725818634 L 10.28913497924805 5.260257244110107 L 9.231925010681152 5.698207378387451 C 8.685554504394531 5.92454719543457 8.136964797973633 6.247587203979492 7.601395130157471 6.6583571434021 L 6.691245079040527 7.356417179107666 L 3.699557781219482 6.136618137359619 L 2.410572052001953 8.400700569152832 L 5.007474899291992 10.45909690856934 L 4.826035022735596 11.61221694946289 C 4.769865036010742 11.96920680999756 4.742565155029297 12.26687717437744 4.742565155029297 12.52225685119629 C 4.742565155029297 12.83291721343994 4.76622486114502 13.14784717559814 4.810985088348389 13.43299770355225 L 4.99201488494873 14.58617687225342 L 2.395112276077271 16.6430835723877 L 3.684503793716431 18.90743064880371 L 6.679335117340088 17.68517684936523 L 7.59111499786377 18.38971710205078 C 8.122784614562988 18.80055809020996 8.653974533081055 19.11294746398926 9.215015411376953 19.3447380065918 L 10.27379512786865 19.78216743469238 L 10.72897052764893 23.04367637634277 L 13.2557897567749 23.04367637634277 M 11.6021146774292 7.35548734664917 C 14.45943450927734 7.35548734664917 16.78403472900391 9.70048713684082 16.78403472900391 12.58288764953613 C 16.78403472900391 15.46574687957764 14.45943450927734 17.81111717224121 11.6021146774292 17.81111717224121 C 8.744785308837891 17.81111717224121 6.420185089111328 15.46574687957764 6.420185089111328 12.58288764953613 C 6.420185089111328 9.70048713684082 8.744785308837891 7.35548734664917 11.6021146774292 7.35548734664917 M 14.46828460693359 25.04367637634277 L 9.531624794006348 25.04367637634277 C 9.224934577941895 25.04367637634277 8.976895332336426 24.82982635498047 8.914444923400879 24.51152801513672 L 8.451334953308105 21.19319725036621 C 7.723555088043213 20.89251708984375 7.041975021362305 20.49291801452637 6.36822509765625 19.97229766845703 L 3.298285007476807 21.22519683837891 C 3.229174852371216 21.24842643737793 3.157374858856201 21.26020812988281 3.084825038909912 21.26020812988281 C 2.85350489616394 21.26021766662598 2.650635004043579 21.14168739318848 2.542165040969849 20.94311714172363 L 0.07341495901346207 16.60765647888184 C -0.06701504439115524 16.33871650695801 -0.000765041506383568 15.99520683288574 0.2275049537420273 15.80859756469727 L 2.835185050964355 13.74315738677979 C 2.774474859237671 13.35641765594482 2.742564916610718 12.93393707275391 2.742564916610718 12.52225685119629 C 2.742564916610718 12.16168689727783 2.777814865112305 11.76232719421387 2.850344896316528 11.30135726928711 L 0.2435049563646317 9.235076904296875 C -0.002595041412860155 9.04777717590332 -0.06630504131317139 8.719527244567871 0.08857496082782745 8.436866760253906 L 2.557324886322021 4.100547313690186 C 2.667094945907593 3.901287317276001 2.872634887695312 3.777507305145264 3.093724966049194 3.777507305145264 C 3.169064998626709 3.777507305145264 3.242995023727417 3.791577339172363 3.313444852828979 3.819327116012573 L 6.384224891662598 5.071377277374268 C 7.058525085449219 4.554207324981689 7.759415149688721 4.143387317657471 8.466494560241699 3.85047721862793 L 8.929594993591309 0.532147228717804 C 8.975924491882324 0.2188272327184677 9.223484992980957 -2.765503040791373e-06 9.531624794006348 -2.765503040791373e-06 L 14.46828460693359 -2.765503040791373e-06 C 14.78031539916992 -2.765503040791373e-06 15.03988456726074 0.223807230591774 15.08547496795654 0.532147228717804 L 15.54857540130615 3.85047721862793 C 16.27862548828125 4.152907371520996 16.96021461486816 4.552507400512695 17.63169479370117 5.071377277374268 L 20.70163536071777 3.819327116012573 C 20.77084541320801 3.795827150344849 20.84280586242676 3.783927202224731 20.91556549072266 3.783927202224731 C 21.14643478393555 3.783927202224731 21.34912490844727 3.902297258377075 21.45774459838867 4.100547313690186 L 23.92649459838867 8.436866760253906 C 24.06730461120605 8.706527709960938 24.00105476379395 9.049676895141602 23.77241516113281 9.235076904296875 L 21.16473579406738 11.30135726928711 C 21.22631454467773 11.69270706176758 21.25735473632812 12.1037769317627 21.25735473632812 12.52225685119629 C 21.25735473632812 12.90311717987061 21.23201560974121 13.30247688293457 21.17988586425781 13.74315738677979 L 23.75641441345215 15.80859756469727 C 24.00229454040527 15.99592685699463 24.06601524353027 16.32451629638672 23.91134452819824 16.60765647888184 L 21.44259452819824 20.94311714172363 C 21.33346557617188 21.14287757873535 21.1279354095459 21.26698684692383 20.90619468688965 21.26699638366699 C 20.8308048248291 21.26699638366699 20.75687408447266 21.25292778015137 20.68647575378418 21.22519683837891 L 17.61569404602051 19.97229766845703 C 16.94169425964355 20.49013710021973 16.24081420898438 20.90094757080078 15.53342533111572 21.19319725036621 L 15.07031536102295 24.51152801513672 C 15.03965473175049 24.81985664367676 14.78646469116211 25.04367637634277 14.46828460693359 25.04367637634277 Z M 11.6021146774292 9.355486869812012 C 9.84759521484375 9.355486869812012 8.420185089111328 10.80328750610352 8.420185089111328 12.58288764953613 C 8.420185089111328 14.36293697357178 9.84759521484375 15.81111717224121 11.6021146774292 15.81111717224121 C 13.35662460327148 15.81111717224121 14.78403472900391 14.36293697357178 14.78403472900391 12.58288764953613 C 14.78403472900391 10.80328750610352 13.35662460327148 9.355486869812012 11.6021146774292 9.355486869812012 Z" stroke="none" fill="#51636d"/>
    </g>
  </g>
</svg>
