<svg xmlns="http://www.w3.org/2000/svg" width="594" height="666" viewBox="0 0 594 666">
  <g id="Subtraction_29" data-name="Subtraction 29" transform="translate(2726 -850)" fill="#f0f0f0">
    <path d="M -2146.99951171875 1515.499633789062 L -2710.999755859375 1515.499633789062 C -2714.873046875 1515.499633789062 -2718.5146484375 1513.991577148438 -2721.253173828125 1511.253173828125 C -2723.991943359375 1508.514526367188 -2725.500244140625 1504.873413085938 -2725.500244140625 1501.000244140625 L -2725.500244140625 900.0000610351562 C -2725.500244140625 893.3173828125 -2724.191650390625 886.834716796875 -2721.610595703125 880.7322387695312 C -2719.1171875 874.8377075195312 -2715.548095703125 869.5439453125 -2711.001953125 864.9979858398438 C -2706.45556640625 860.4517211914062 -2701.161865234375 856.882568359375 -2695.267578125 854.389404296875 C -2689.165283203125 851.8082885742188 -2682.6826171875 850.4996337890625 -2675.999755859375 850.4996337890625 L -2181.999755859375 850.4996337890625 C -2175.317138671875 850.4996337890625 -2168.834716796875 851.8082885742188 -2162.732421875 854.389404296875 C -2156.83837890625 856.8823852539062 -2151.544677734375 860.4515380859375 -2146.998291015625 864.9979858398438 C -2142.451904296875 869.5443725585938 -2138.8828125 874.838134765625 -2136.389892578125 880.7322387695312 C -2133.808837890625 886.8348999023438 -2132.500244140625 893.3174438476562 -2132.500244140625 900.0000610351562 L -2132.500244140625 1501.000244140625 C -2132.500244140625 1504.873291015625 -2134.008544921875 1508.514526367188 -2136.7470703125 1511.253173828125 C -2139.485595703125 1513.991577148438 -2143.126708984375 1515.499633789062 -2146.99951171875 1515.499633789062 Z M -2639.500244140625 1143.499877929688 C -2651.079345703125 1143.499877929688 -2660.49951171875 1152.920532226562 -2660.49951171875 1164.500122070312 C -2660.49951171875 1176.079711914062 -2651.079345703125 1185.500366210938 -2639.500244140625 1185.500366210938 C -2627.920654296875 1185.500366210938 -2618.5 1176.079711914062 -2618.5 1164.500122070312 C -2618.5 1152.920532226562 -2627.920654296875 1143.499877929688 -2639.500244140625 1143.499877929688 Z M -2638 1012.50048828125 C -2663.088623046875 1012.50048828125 -2683.5 1032.91162109375 -2683.5 1058.000366210938 C -2683.5 1083.089111328125 -2663.088623046875 1103.500366210938 -2638 1103.500366210938 C -2612.9111328125 1103.500366210938 -2592.5 1083.089111328125 -2592.5 1058.000366210938 C -2592.5 1032.91162109375 -2612.9111328125 1012.50048828125 -2638 1012.50048828125 Z M -2523.999755859375 901.4998168945312 C -2545.22900390625 901.4998168945312 -2562.500244140625 918.7706909179688 -2562.500244140625 939.9996337890625 L -2562.500244140625 1062.999877929688 C -2562.500244140625 1084.228759765625 -2545.22900390625 1101.499755859375 -2523.999755859375 1101.499755859375 L -2221.000244140625 1101.499755859375 C -2199.770751953125 1101.499755859375 -2182.49951171875 1084.228759765625 -2182.49951171875 1062.999877929688 L -2182.49951171875 939.9996337890625 C -2182.49951171875 918.7706909179688 -2199.770751953125 901.4998168945312 -2221.000244140625 901.4998168945312 L -2523.999755859375 901.4998168945312 Z M -2638 903.4996337890625 C -2663.088623046875 903.4996337890625 -2683.5 923.910888671875 -2683.5 948.9996337890625 C -2683.5 974.08837890625 -2663.088623046875 994.4996337890625 -2638 994.4996337890625 C -2612.9111328125 994.4996337890625 -2592.5 974.08837890625 -2592.5 948.9996337890625 C -2592.5 923.910888671875 -2612.9111328125 903.4996337890625 -2638 903.4996337890625 Z" stroke="none"/>
    <path d="M -2146.99951171875 1514.999633789062 C -2143.26025390625 1514.999633789062 -2139.74462890625 1513.543579101562 -2137.1005859375 1510.899658203125 C -2134.45654296875 1508.25537109375 -2133.000244140625 1504.73974609375 -2133.000244140625 1501.000244140625 L -2133.000244140625 900.0000610351562 C -2133.000244140625 893.3848266601562 -2134.295654296875 886.9676513671875 -2136.850341796875 880.9269409179688 C -2139.318115234375 875.092529296875 -2142.851318359375 869.8521118164062 -2147.351806640625 865.3514404296875 C -2151.852294921875 860.8508911132812 -2157.0927734375 857.317626953125 -2162.92724609375 854.849853515625 C -2168.967529296875 852.2950439453125 -2175.384521484375 850.9996337890625 -2181.999755859375 850.9996337890625 L -2675.999755859375 850.9996337890625 C -2682.615234375 850.9996337890625 -2689.032470703125 852.2950439453125 -2695.07275390625 854.849853515625 C -2700.907470703125 857.3178100585938 -2706.14794921875 860.85107421875 -2710.6484375 865.3514404296875 C -2715.148681640625 869.8517456054688 -2718.681884765625 875.0921630859375 -2721.14990234375 880.9270629882812 C -2723.704833984375 886.967529296875 -2725.000244140625 893.3846435546875 -2725.000244140625 900.0000610351562 L -2725.000244140625 1501.000244140625 C -2725.000244140625 1504.73974609375 -2723.5439453125 1508.255493164062 -2720.899658203125 1510.899536132812 C -2718.255615234375 1513.543579101562 -2714.73974609375 1514.999633789062 -2710.999755859375 1514.999633789062 L -2146.99951171875 1514.999633789062 M -2639.500244140625 1142.999877929688 C -2627.64501953125 1142.999877929688 -2618 1152.644897460938 -2618 1164.500122070312 C -2618 1176.355346679688 -2627.64501953125 1186.000366210938 -2639.500244140625 1186.000366210938 C -2651.35498046875 1186.000366210938 -2660.99951171875 1176.355346679688 -2660.99951171875 1164.500122070312 C -2660.99951171875 1152.644897460938 -2651.35498046875 1142.999877929688 -2639.500244140625 1142.999877929688 M -2638 1012.00048828125 C -2612.635498046875 1012.00048828125 -2592 1032.635986328125 -2592 1058.000366210938 C -2592 1083.364868164062 -2612.635498046875 1104.000366210938 -2638 1104.000366210938 C -2663.364501953125 1104.000366210938 -2684 1083.364868164062 -2684 1058.000366210938 C -2684 1032.635986328125 -2663.364501953125 1012.00048828125 -2638 1012.00048828125 M -2523.999755859375 900.9998168945312 L -2221.000244140625 900.9998168945312 C -2199.4951171875 900.9998168945312 -2181.99951171875 918.4950561523438 -2181.99951171875 939.9996337890625 L -2181.99951171875 1062.999877929688 C -2181.99951171875 1084.504516601562 -2199.4951171875 1101.999755859375 -2221.000244140625 1101.999755859375 L -2523.999755859375 1101.999755859375 C -2545.504638671875 1101.999755859375 -2563.000244140625 1084.504516601562 -2563.000244140625 1062.999877929688 L -2563.000244140625 939.9996337890625 C -2563.000244140625 918.4950561523438 -2545.504638671875 900.9998168945312 -2523.999755859375 900.9998168945312 M -2638 902.9996337890625 C -2612.635498046875 902.9996337890625 -2592 923.6351318359375 -2592 948.9996337890625 C -2592 974.3641357421875 -2612.635498046875 994.9996337890625 -2638 994.9996337890625 C -2663.364501953125 994.9996337890625 -2684 974.3641357421875 -2684 948.9996337890625 C -2684 923.6351318359375 -2663.364501953125 902.9996337890625 -2638 902.9996337890625 M -2146.99951171875 1515.999633789062 L -2710.999755859375 1515.999633789062 C -2715.0068359375 1515.999633789062 -2718.773681640625 1514.439575195312 -2721.606689453125 1511.606689453125 C -2724.43994140625 1508.773681640625 -2726.000244140625 1505.006958007812 -2726.000244140625 1501.000244140625 L -2726.000244140625 900.0000610351562 C -2726.000244140625 893.2500610351562 -2724.67822265625 886.701904296875 -2722.071044921875 880.5374755859375 C -2719.552490234375 874.5831909179688 -2715.947265625 869.2360229492188 -2711.35546875 864.6444091796875 C -2706.763427734375 860.0523681640625 -2701.416259765625 856.4472045898438 -2695.46240234375 853.9288940429688 C -2689.298095703125 851.3216552734375 -2682.749755859375 849.9996337890625 -2675.999755859375 849.9996337890625 L -2181.999755859375 849.9996337890625 C -2175.25 849.9996337890625 -2168.701904296875 851.3216552734375 -2162.53759765625 853.9288940429688 C -2156.583984375 856.447021484375 -2151.23681640625 860.0523071289062 -2146.644775390625 864.6444091796875 C -2142.052734375 869.2364501953125 -2138.447509765625 874.583740234375 -2135.929443359375 880.5374755859375 C -2133.322265625 886.7019653320312 -2132.000244140625 893.2501220703125 -2132.000244140625 900.0000610351562 L -2132.000244140625 1501.000244140625 C -2132.000244140625 1505.0068359375 -2133.560546875 1508.773681640625 -2136.3935546875 1511.606689453125 C -2139.2265625 1514.439575195312 -2142.9931640625 1515.999633789062 -2146.99951171875 1515.999633789062 Z M -2639.500244140625 1143.999877929688 C -2650.803466796875 1143.999877929688 -2659.99951171875 1153.196166992188 -2659.99951171875 1164.500122070312 C -2659.99951171875 1175.804077148438 -2650.803466796875 1185.000366210938 -2639.500244140625 1185.000366210938 C -2628.1962890625 1185.000366210938 -2619 1175.804077148438 -2619 1164.500122070312 C -2619 1153.196166992188 -2628.1962890625 1143.999877929688 -2639.500244140625 1143.999877929688 Z M -2638 1013.00048828125 C -2662.81298828125 1013.00048828125 -2683 1033.187377929688 -2683 1058.000366210938 C -2683 1082.8134765625 -2662.81298828125 1103.000366210938 -2638 1103.000366210938 C -2613.18701171875 1103.000366210938 -2593 1082.8134765625 -2593 1058.000366210938 C -2593 1033.187377929688 -2613.18701171875 1013.00048828125 -2638 1013.00048828125 Z M -2523.999755859375 901.9998168945312 C -2544.953369140625 901.9998168945312 -2562.000244140625 919.0464477539062 -2562.000244140625 939.9996337890625 L -2562.000244140625 1062.999877929688 C -2562.000244140625 1083.953002929688 -2544.953369140625 1100.999755859375 -2523.999755859375 1100.999755859375 L -2221.000244140625 1100.999755859375 C -2200.046630859375 1100.999755859375 -2182.99951171875 1083.953002929688 -2182.99951171875 1062.999877929688 L -2182.99951171875 939.9996337890625 C -2182.99951171875 919.0464477539062 -2200.046630859375 901.9998168945312 -2221.000244140625 901.9998168945312 L -2523.999755859375 901.9998168945312 Z M -2638 903.9996337890625 C -2662.81298828125 903.9996337890625 -2683 924.1865234375 -2683 948.9996337890625 C -2683 973.812744140625 -2662.81298828125 993.9996337890625 -2638 993.9996337890625 C -2613.18701171875 993.9996337890625 -2593 973.812744140625 -2593 948.9996337890625 C -2593 924.1865234375 -2613.18701171875 903.9996337890625 -2638 903.9996337890625 Z" stroke="none" fill="#707070"/>
  </g>
</svg>
