<svg id="Schedule_Icon" data-name="Schedule Icon" xmlns="http://www.w3.org/2000/svg" width="31.984" height="33.452" viewBox="0 0 31.984 33.452">
  <path id="Path_95" data-name="Path 95" d="M10.108,17.054h3.554V20.4H10.108ZM34.984,8.69V32.107a3.464,3.464,0,0,1-3.554,3.345H6.554A3.453,3.453,0,0,1,3,32.107L3.018,8.69A3.437,3.437,0,0,1,6.554,5.345H8.331V2h3.554V5.345H26.1V2h3.554V5.345H31.43A3.464,3.464,0,0,1,34.984,8.69ZM6.554,12.036H31.43V8.69H6.554ZM31.43,32.107V15.381H6.554V32.107ZM24.323,20.4h3.554V17.054H24.323Zm-7.108,0h3.554V17.054H17.215Z" transform="translate(-3 -2)" fill="#fff"/>
</svg>
