<svg id="Search_Icon" data-name="Search Icon" xmlns="http://www.w3.org/2000/svg" width="14.19" height="14.19" viewBox="0 0 14.19 14.19">
  <path id="Search_Icon-2" data-name="Search Icon" d="M1.774,6.208A4.391,4.391,0,0,1,6.208,1.774a4.391,4.391,0,0,1,4.434,4.434,4.391,4.391,0,0,1-4.434,4.434A4.391,4.391,0,0,1,1.774,6.208Zm10.908,7.716a.878.878,0,1,0,1.242-1.242L11.174,9.933a6.072,6.072,0,0,0,1.242-3.725A6.17,6.17,0,0,0,6.208,0,6.17,6.17,0,0,0,0,6.208a6.17,6.17,0,0,0,6.208,6.208,6.072,6.072,0,0,0,3.725-1.242Z" fill="#fff"/>
</svg>
