<svg xmlns="http://www.w3.org/2000/svg" width="45.119" height="22.56" viewBox="0 0 45.119 22.56">
  <g id="Team_Icon" data-name="Team Icon" transform="translate(0 -6)">
    <path id="Path_233" data-name="Path 233" d="M22.56,18.69a19.948,19.948,0,0,1,7.971,1.692,5.611,5.611,0,0,1,3.309,5.132V28.56H11.28V25.533A5.571,5.571,0,0,1,14.589,20.4,19.628,19.628,0,0,1,22.56,18.69Zm-15.04.47A3.76,3.76,0,1,0,3.76,15.4,3.771,3.771,0,0,0,7.52,19.16Zm2.124,2.068A13.127,13.127,0,0,0,7.52,21.04a13.067,13.067,0,0,0-5.226,1.09A3.78,3.78,0,0,0,0,25.608V28.56H8.46V25.533A8.457,8.457,0,0,1,9.644,21.228ZM37.6,19.16a3.76,3.76,0,1,0-3.76-3.76A3.771,3.771,0,0,0,37.6,19.16Zm7.52,6.448a3.78,3.78,0,0,0-2.294-3.478,12.78,12.78,0,0,0-7.351-.9,8.457,8.457,0,0,1,1.184,4.305V28.56h8.46ZM22.56,6a5.64,5.64,0,1,1-5.64,5.64A5.632,5.632,0,0,1,22.56,6Z" transform="translate(0 0)" fill="#fff"/>
  </g>
</svg>
