<svg xmlns="http://www.w3.org/2000/svg" width="39" height="39" viewBox="0 0 39 39">
  <g id="Team_Icon" data-name="Team Icon" transform="translate(-38 -236)">
    <circle id="Ellipse_223" data-name="Ellipse 223" cx="19.5" cy="19.5" r="19.5" transform="translate(38 236)" fill="#148eae"/>
    <g id="Group_738" data-name="Group 738" transform="translate(45.495 248.212)">
      <path id="Path_233" data-name="Path 233" d="M12.222,12.875a10.807,10.807,0,0,1,4.318.917,3.04,3.04,0,0,1,1.793,2.78v1.65H6.111v-1.64A3.018,3.018,0,0,1,7.9,13.8,10.633,10.633,0,0,1,12.222,12.875Zm-8.148.255a2.037,2.037,0,1,0-2.037-2.037A2.043,2.043,0,0,0,4.074,13.129Zm1.151,1.12a7.111,7.111,0,0,0-1.151-.1,7.079,7.079,0,0,0-2.831.591A2.048,2.048,0,0,0,0,16.623v1.6H4.583v-1.64A4.582,4.582,0,0,1,5.225,14.25Zm15.145-1.12a2.037,2.037,0,1,0-2.037-2.037A2.043,2.043,0,0,0,20.369,13.129Zm4.074,3.493A2.048,2.048,0,0,0,23.2,14.738a6.924,6.924,0,0,0-3.982-.489,4.582,4.582,0,0,1,.642,2.332v1.64h4.583ZM12.222,6A3.055,3.055,0,1,1,9.166,9.055,3.051,3.051,0,0,1,12.222,6Z" transform="translate(0 -6)" fill="#fff"/>
    </g>
  </g>
</svg>
