<svg xmlns="http://www.w3.org/2000/svg" width="33" height="33" viewBox="0 0 33 33">
  <g id="Editor_Icon_Inactive" data-name="Editor Icon Inactive" transform="translate(-82 -536.9)">
    <rect id="Rectangle_932" data-name="Rectangle 932" width="33" height="33" rx="2" transform="translate(82 536.9)" fill="#606060"/>
    <path id="Subtraction_22" data-name="Subtraction 22" d="M-1414,8062.173h-4v-4l11.786-11.784,3.994,4Z" transform="translate(1507 -7499.092)" fill="#fff"/>
    <path id="Subtraction_23" data-name="Subtraction 23" d="M-1310.865,8583.256h0l-4-4,1.949-1.949a1.056,1.056,0,0,1,.75-.311,1.061,1.061,0,0,1,.752.311l2.493,2.493a1.056,1.056,0,0,1,.311.752,1.054,1.054,0,0,1-.311.751l-1.949,1.949Z" transform="translate(1416.286 -8032.65)" fill="#fff"/>
  </g>
</svg>
