<svg xmlns="http://www.w3.org/2000/svg" width="36.141" height="18.071" viewBox="0 0 36.141 18.071">
  <g id="Team_Icon" data-name="Team Icon" transform="translate(0 -6)">
    <path id="Path_233" data-name="Path 233" d="M18.071,16.165a15.979,15.979,0,0,1,6.385,1.355,4.494,4.494,0,0,1,2.65,4.111v2.44H9.035V21.646a4.463,4.463,0,0,1,2.65-4.111A15.722,15.722,0,0,1,18.071,16.165Zm-12.047.376a3.012,3.012,0,1,0-3.012-3.012A3.021,3.021,0,0,0,6.024,16.541Zm1.7,1.656a10.515,10.515,0,0,0-1.7-.151,10.467,10.467,0,0,0-4.186.873A3.028,3.028,0,0,0,0,21.706v2.364H6.777V21.646A6.775,6.775,0,0,1,7.725,18.2Zm22.393-1.656a3.012,3.012,0,1,0-3.012-3.012A3.021,3.021,0,0,0,30.118,16.541Zm6.024,5.165A3.028,3.028,0,0,0,34.3,18.921a10.237,10.237,0,0,0-5.888-.723,6.774,6.774,0,0,1,.949,3.448v2.424h6.777ZM18.071,6a4.518,4.518,0,1,1-4.518,4.518A4.512,4.512,0,0,1,18.071,6Z" transform="translate(0)" fill="#fff"/>
  </g>
</svg>
