<svg xmlns="http://www.w3.org/2000/svg" xmlns:xlink="http://www.w3.org/1999/xlink" width="208.317" height="286.438" viewBox="0 0 208.317 286.438">
  <defs>
    <filter id="Rectangle_461" x="0" y="0" width="208.317" height="286.438" filterUnits="userSpaceOnUse">
      <feOffset dy="3" input="SourceAlpha"/>
      <feGaussianBlur stdDeviation="3" result="blur"/>
      <feFlood flood-opacity="0.251"/>
      <feComposite operator="in" in2="blur"/>
      <feComposite in="SourceGraphic"/>
    </filter>
  </defs>
  <g id="Group_639" data-name="Group 639" transform="translate(9.399 6)">
    <g transform="matrix(1, 0, 0, 1, -9.4, -6)" filter="url(#Rectangle_461)">
      <g id="Rectangle_461-2" data-name="Rectangle 461" transform="translate(9 6)" fill="#dadada" stroke="#adadad" stroke-width="0.5">
        <path d="M0,0H190.317a0,0,0,0,1,0,0V248.438a20,20,0,0,1-20,20H20a20,20,0,0,1-20-20V0A0,0,0,0,1,0,0Z" stroke="none"/>
        <path d="M.25.25H190.067a0,0,0,0,1,0,0V248.438a19.75,19.75,0,0,1-19.75,19.75H20A19.75,19.75,0,0,1,.25,248.438V.25A0,0,0,0,1,.25.25Z" fill="none"/>
      </g>
    </g>
    <text id="_9_17" data-name="9/17" transform="translate(90.778 54.15)" font-size="29" font-family="SegoeUI, Segoe UI"><tspan x="-29.099" y="0">9/17</tspan></text>
    <text id="_9_24" data-name="9/24" transform="translate(90.778 223.805)" font-size="29" font-family="SegoeUI, Segoe UI"><tspan x="-29.099" y="0">9/24</tspan></text>
    <g id="date_range_black_24dp" transform="translate(48.64 86.911)">
      <path id="Path_95" data-name="Path 95" d="M23.578,45.584H33.867v9.685H23.578ZM95.6,21.371v67.8c0,5.327-4.63,9.685-10.289,9.685H13.289C7.579,98.853,3,94.495,3,89.168l.051-67.8a9.952,9.952,0,0,1,10.238-9.685h5.145V2H28.723v9.685H69.879V2H80.169v9.685h5.145C90.972,11.685,95.6,16.044,95.6,21.371ZM13.289,31.056H85.313V21.371H13.289ZM85.313,89.168V40.741H13.289V89.168Zm-20.578-33.9H75.024V45.584H64.735Zm-20.578,0H54.446V45.584H44.157Z" transform="translate(-3 -2)"/>
    </g>
    <text id="_66_Complete_" data-name="66% Complete " transform="translate(95.601 252.353)" font-size="6" font-family="SegoeUI, Segoe UI"><tspan x="-20.177" y="0">66% Complete </tspan></text>
  </g>
</svg>
