<svg id="Component_60_2" data-name="Component 60 – 2" xmlns="http://www.w3.org/2000/svg" width="53.574" height="53.574" viewBox="0 0 53.574 53.574">
  <path id="Subtraction_10" data-name="Subtraction 10" d="M22.984,45.969a23.175,23.175,0,0,1-4.632-.467,22.858,22.858,0,0,1-8.219-3.458A23.052,23.052,0,0,1,1.806,31.931,22.839,22.839,0,0,1,.467,27.617a23.216,23.216,0,0,1,0-9.264,22.854,22.854,0,0,1,3.458-8.218A23.053,23.053,0,0,1,14.038,1.807,22.862,22.862,0,0,1,18.352.467,23.162,23.162,0,0,1,29.8,1.026a22.994,22.994,0,0,0,0,43.917A23,23,0,0,1,22.984,45.969Z" transform="translate(0 21.069) rotate(-45)" fill="#fff"/>
</svg>
