<svg xmlns="http://www.w3.org/2000/svg" width="19.493" height="19.493" viewBox="0 0 19.493 19.493">
  <g id="Night_Icon" data-name="Night Icon" transform="translate(297.164 0)">
    <g id="Night_Icon-2" data-name="Night Icon" transform="translate(-297.164 0)">
      <path id="Night_Icon-3" data-name="Night Icon" d="M7.625,0A6.667,6.667,0,0,0,6.088.18,6.851,6.851,0,0,0,4.657.695a7.367,7.367,0,0,0-1.3.815A8.047,8.047,0,0,0,2.233,2.59,8.758,8.758,0,0,0,1.3,3.9,9.355,9.355,0,0,0,.6,5.4,9.849,9.849,0,0,0,.155,7.06a10.331,10.331,0,0,0,0,3.564A9.853,9.853,0,0,0,.6,12.283a9.361,9.361,0,0,0,.7,1.5,8.756,8.756,0,0,0,.931,1.309,8.041,8.041,0,0,0,1.129,1.08,7.355,7.355,0,0,0,1.3.815,6.842,6.842,0,0,0,1.431.515,6.663,6.663,0,0,0,3.8-.215c-3.209-1.153-5.365-4.547-5.365-8.447S6.675,1.548,9.884.395A6.666,6.666,0,0,0,7.625,0Z" transform="translate(0 6.989) rotate(-45)" fill="#fff"/>
    </g>
  </g>
</svg>
