<svg xmlns="http://www.w3.org/2000/svg" width="28.929" height="28.929" viewBox="0 0 28.929 28.929">
  <g id="Night_Icon" data-name="Night Icon" transform="translate(-0.925 1.174)">
    <path id="Night_Icon-2" data-name="Night Icon" d="M10.431.056A9.4,9.4,0,0,0,8.209.189a8.978,8.978,0,0,0-2.041.63A9.184,9.184,0,0,0,4.35,1.9,9.844,9.844,0,0,0,2.8,3.374,10.825,10.825,0,0,0,1.552,5.2a11.96,11.96,0,0,0-.9,2.128A13.234,13.234,0,0,0,.147,9.708,14.658,14.658,0,0,0,.072,12.29,15.557,15.557,0,0,0,.447,14.9a15.655,15.655,0,0,0,1.937,4.7A15.006,15.006,0,0,0,3.85,21.582a13.9,13.9,0,0,0,1.734,1.667,12.518,12.518,0,0,0,1.955,1.3,11.166,11.166,0,0,0,2.128.871,10.169,10.169,0,0,0,2.253.391,9.223,9.223,0,0,0,3.257-.385c-4.77-1.949-8.2-7.073-8.523-12.752S9.179,2.23,13.755.821A10.359,10.359,0,0,0,10.431.056Z" transform="translate(0.864 9.529) rotate(-45)" fill="#265b77"/>
  </g>
</svg>
