<svg xmlns="http://www.w3.org/2000/svg" width="17.016" height="30.074" viewBox="0 0 17.016 30.074">
  <path id="Night_Icon" data-name="Night Icon" d="M13.126,30.074a11.611,11.611,0,0,1-2.645-.306,11.889,11.889,0,0,1-2.464-.876,12.706,12.706,0,0,1-2.229-1.386A13.783,13.783,0,0,1,3.845,25.67a14.9,14.9,0,0,1-1.6-2.226,15.824,15.824,0,0,1-1.21-2.554,16.59,16.59,0,0,1-.765-2.823,17.361,17.361,0,0,1,0-6.061,16.6,16.6,0,0,1,.765-2.823A15.833,15.833,0,0,1,2.242,6.63,14.894,14.894,0,0,1,3.845,4.4,13.771,13.771,0,0,1,5.788,2.569,12.685,12.685,0,0,1,8.017,1.182,11.871,11.871,0,0,1,10.481.306a11.6,11.6,0,0,1,6.535.366C11.492,2.633,7.78,8.406,7.78,15.037s3.712,12.4,9.236,14.366A11.6,11.6,0,0,1,13.126,30.074Z" transform="translate(0 0)" fill="#fff"/>
</svg>
