<svg id="Night_Icon" data-name="Night Icon" xmlns="http://www.w3.org/2000/svg" width="17.275" height="20.275" viewBox="0 0 17.275 20.275">
  <path id="Night_Icon-2" data-name="Night Icon" d="M6.757,0A5.909,5.909,0,0,0,5.4.159,6.072,6.072,0,0,0,4.127.616a6.529,6.529,0,0,0-1.148.722,7.132,7.132,0,0,0-1,.957,7.761,7.761,0,0,0-.825,1.16A8.291,8.291,0,0,0,.531,4.785,8.728,8.728,0,0,0,.137,6.256a9.155,9.155,0,0,0,0,3.158,8.731,8.731,0,0,0,.394,1.471,8.3,8.3,0,0,0,.623,1.331,7.759,7.759,0,0,0,.825,1.16,7.126,7.126,0,0,0,1,.957,6.518,6.518,0,0,0,1.148.722,6.063,6.063,0,0,0,1.268.457,5.9,5.9,0,0,0,3.364-.191A7.758,7.758,0,0,1,4.005,7.835,7.757,7.757,0,0,1,8.759.35,5.907,5.907,0,0,0,6.757,0Z" transform="translate(0 9.194) rotate(-45)" fill="#fff"/>
</svg>
