<svg xmlns="http://www.w3.org/2000/svg" width="23.815" height="23.815" viewBox="0 0 23.815 23.815">
  <path id="Night_Icon_Desktop" data-name="Night Icon Desktop" d="M9.315,0A8.145,8.145,0,0,0,7.438.219,8.37,8.37,0,0,0,5.689.849a9,9,0,0,0-1.582,1A9.831,9.831,0,0,0,2.728,3.164a10.7,10.7,0,0,0-1.137,1.6A11.429,11.429,0,0,0,.732,6.6,12.032,12.032,0,0,0,.189,8.625a12.621,12.621,0,0,0,0,4.354,12.037,12.037,0,0,0,.543,2.028,11.437,11.437,0,0,0,.859,1.835,10.7,10.7,0,0,0,1.137,1.6,9.824,9.824,0,0,0,1.379,1.319,8.986,8.986,0,0,0,1.582,1,8.358,8.358,0,0,0,1.749.629,8.14,8.14,0,0,0,4.638-.263C8.156,19.712,5.521,15.565,5.521,10.8S8.155,1.891,12.076.482A8.144,8.144,0,0,0,9.315,0Z" transform="translate(0 8.539) rotate(-45)" fill="#265b77"/>
</svg>
