<svg xmlns="http://www.w3.org/2000/svg" xmlns:xlink="http://www.w3.org/1999/xlink" width="67" height="67" viewBox="0 0 67 67">
  <defs>
    <filter id="Rectangle_461" x="0" y="0" width="67" height="67" filterUnits="userSpaceOnUse">
      <feOffset dy="3" input="SourceAlpha"/>
      <feGaussianBlur stdDeviation="3" result="blur"/>
      <feFlood flood-opacity="0.161"/>
      <feComposite operator="in" in2="blur"/>
      <feComposite in="SourceGraphic"/>
    </filter>
    <filter id="Subtraction_21" x="1" y="5.436" width="60.49" height="60.49" filterUnits="userSpaceOnUse">
      <feOffset dy="3" input="SourceAlpha"/>
      <feGaussianBlur stdDeviation="3" result="blur-2"/>
      <feFlood flood-opacity="0.161"/>
      <feComposite operator="in" in2="blur-2"/>
      <feComposite in="SourceGraphic"/>
    </filter>
  </defs>
  <g id="Night_Icon" data-name="Night Icon" transform="translate(-184 -459)">
    <g transform="matrix(1, 0, 0, 1, 184, 459)" filter="url(#Rectangle_461)">
      <rect id="Rectangle_461-2" data-name="Rectangle 461" width="49" height="49" rx="7" transform="translate(9 6)" fill="#737f7b"/>
    </g>
    <g transform="matrix(1, 0, 0, 1, 184, 459)" filter="url(#Subtraction_21)">
      <path id="Subtraction_21-2" data-name="Subtraction 21" d="M16.983,38.074a15.338,15.338,0,0,1-3.423-.387,15.607,15.607,0,0,1-3.188-1.109,16.5,16.5,0,0,1-2.885-1.755A17.679,17.679,0,0,1,4.974,32.5,18.878,18.878,0,0,1,2.9,29.681a19.844,19.844,0,0,1-1.566-3.233,20.646,20.646,0,0,1-.989-3.573,21.514,21.514,0,0,1,0-7.673,20.654,20.654,0,0,1,.989-3.573A19.855,19.855,0,0,1,2.9,8.394,18.873,18.873,0,0,1,4.974,5.576,17.664,17.664,0,0,1,7.488,3.252,16.475,16.475,0,0,1,10.373,1.5,15.584,15.584,0,0,1,13.561.387,15.329,15.329,0,0,1,22.016.85c-7.147,2.483-11.95,9.791-11.95,18.187s4.8,15.7,11.95,18.187A15.307,15.307,0,0,1,16.983,38.074Z" transform="translate(10 27) rotate(-45)" fill="#fff"/>
    </g>
  </g>
</svg>
