<svg xmlns="http://www.w3.org/2000/svg" xmlns:xlink="http://www.w3.org/1999/xlink" width="855" height="360" viewBox="0 0 855 360">
  <defs>
    <filter id="Rectangle_910" x="0" y="0" width="855" height="360" filterUnits="userSpaceOnUse">
      <feOffset dy="3" input="SourceAlpha"/>
      <feGaussianBlur stdDeviation="3" result="blur"/>
      <feFlood flood-opacity="0.161"/>
      <feComposite operator="in" in2="blur"/>
      <feComposite in="SourceGraphic"/>
    </filter>
    <clipPath id="clip-path">
      <rect width="61" height="246" fill="none"/>
    </clipPath>
  </defs>
  <g id="Phony_Schedule" data-name="Phony Schedule" transform="translate(-83 -71)">
    <g transform="matrix(1, 0, 0, 1, 83, 71)" filter="url(#Rectangle_910)">
      <g id="Rectangle_910-2" data-name="Rectangle 910" transform="translate(9 6)" fill="#fff" stroke="#919191" stroke-width="0.5">
        <rect width="837" height="342" rx="7" stroke="none"/>
        <rect x="0.25" y="0.25" width="836.5" height="341.5" rx="6.75" fill="none"/>
      </g>
    </g>
    <g id="Group_569" data-name="Group 569" transform="translate(181.797 115.5)">
      <line id="Line_316" data-name="Line 316" x2="678.88" transform="translate(16.5 24.5)" fill="none" stroke="#c1c1c1" stroke-width="1"/>
      <text id="_7AM" data-name="7AM" transform="translate(15 14)" fill="#888" font-size="13" font-family="SegoeUI, Segoe UI"><tspan x="-13.533" y="0">7AM</tspan></text>
      <text id="_12AM" data-name="12AM" transform="translate(694.32 14)" fill="#888" font-size="13" font-family="SegoeUI, Segoe UI"><tspan x="-17.037" y="0">12AM</tspan></text>
    </g>
    <g id="Repeat_Grid_32" data-name="Repeat Grid 32" transform="translate(121 149)" clip-path="url(#clip-path)">
      <g transform="translate(-121 -173)">
        <text id="Jordan_Giles" data-name="Jordan Giles" transform="translate(121 185)" font-size="11" font-family="SegoeUI-Semibold, Segoe UI" font-weight="600"><tspan x="0" y="0">Jordan Giles</tspan></text>
      </g>
      <g transform="translate(-121 -138)">
        <text id="Jordan_Giles-2" data-name="Jordan Giles" transform="translate(121 185)" font-size="11" font-family="SegoeUI-Semibold, Segoe UI" font-weight="600"><tspan x="0" y="0">Jordan Giles</tspan></text>
      </g>
      <g transform="translate(-121 -103)">
        <text id="Jordan_Giles-3" data-name="Jordan Giles" transform="translate(121 185)" font-size="11" font-family="SegoeUI-Semibold, Segoe UI" font-weight="600"><tspan x="0" y="0">Jordan Giles</tspan></text>
      </g>
      <g transform="translate(-121 -68)">
        <text id="Jordan_Giles-4" data-name="Jordan Giles" transform="translate(121 185)" font-size="11" font-family="SegoeUI-Semibold, Segoe UI" font-weight="600"><tspan x="0" y="0">Jordan Giles</tspan></text>
      </g>
      <g transform="translate(-121 -33)">
        <text id="Jordan_Giles-5" data-name="Jordan Giles" transform="translate(121 185)" font-size="11" font-family="SegoeUI-Semibold, Segoe UI" font-weight="600"><tspan x="0" y="0">Jordan Giles</tspan></text>
      </g>
      <g transform="translate(-121 2)">
        <text id="Jordan_Giles-6" data-name="Jordan Giles" transform="translate(121 185)" font-size="11" font-family="SegoeUI-Semibold, Segoe UI" font-weight="600"><tspan x="0" y="0">Jordan Giles</tspan></text>
      </g>
      <g transform="translate(-121 37)">
        <text id="Jordan_Giles-7" data-name="Jordan Giles" transform="translate(121 185)" font-size="11" font-family="SegoeUI-Semibold, Segoe UI" font-weight="600"><tspan x="0" y="0">Jordan Giles</tspan></text>
      </g>
      <g transform="translate(-121 72)">
        <text id="Jordan_Giles-8" data-name="Jordan Giles" transform="translate(121 185)" font-size="11" font-family="SegoeUI-Semibold, Segoe UI" font-weight="600"><tspan x="0" y="0">Jordan Giles</tspan></text>
      </g>
    </g>
    <line id="Line_326" data-name="Line 326" x2="125" transform="translate(206.5 158.5)" fill="none" stroke="#1897e6" stroke-width="3"/>
    <line id="Line_327" data-name="Line 327" x2="125" transform="translate(206.5 192.5)" fill="none" stroke="#1897e6" stroke-width="3"/>
    <line id="Line_328" data-name="Line 328" x2="125" transform="translate(237.5 226.5)" fill="none" stroke="#1897e6" stroke-width="3"/>
    <line id="Line_329" data-name="Line 329" x2="125" transform="translate(237.5 260.5)" fill="none" stroke="#1897e6" stroke-width="3"/>
    <line id="Line_330" data-name="Line 330" x2="125" transform="translate(237.5 297.5)" fill="none" stroke="#1897e6" stroke-width="3"/>
    <line id="Line_331" data-name="Line 331" x2="125" transform="translate(324.5 334.5)" fill="none" stroke="#1897e6" stroke-width="3"/>
    <line id="Line_332" data-name="Line 332" x2="125" transform="translate(324.5 368.5)" fill="none" stroke="#1897e6" stroke-width="3"/>
    <text id="Monday_9_17" data-name="Monday, 9/17" transform="translate(184 101)" fill="#1897e6" font-size="18" font-family="SegoeUI-Bold, Segoe UI" font-weight="700"><tspan x="-58.764" y="0">Monday, 9/17</tspan></text>
    <g id="date_range_black_24dp" transform="translate(99 82.443)">
      <path id="Path_95" data-name="Path 95" d="M5.928,8.2H7.392V9.579H5.928ZM16.175,4.756V14.4a1.427,1.427,0,0,1-1.464,1.378H4.464A1.422,1.422,0,0,1,3,14.4l.007-9.646A1.416,1.416,0,0,1,4.464,3.378H5.2V2H6.66V3.378h5.856V2h1.464V3.378h.732A1.427,1.427,0,0,1,16.175,4.756ZM4.464,6.134H14.711V4.756H4.464ZM14.711,14.4V7.512H4.464V14.4ZM11.783,9.579h1.464V8.2H11.783Zm-2.928,0h1.464V8.2H8.856Z" transform="translate(-3 -2)" fill="#c4c4c4"/>
    </g>
  </g>
</svg>
