<svg id="Schedule_Icon" data-name="Schedule Icon" xmlns="http://www.w3.org/2000/svg" width="16.539" height="17.298" viewBox="0 0 16.539 17.298">
  <path id="Path_95" data-name="Path 95" d="M6.675,9.784H8.513v1.73H6.675ZM19.539,5.46V17.568A1.791,1.791,0,0,1,17.7,19.3H4.838A1.786,1.786,0,0,1,3,17.568L3.009,5.46A1.777,1.777,0,0,1,4.838,3.73h.919V2H7.594V3.73h7.351V2h1.838V3.73H17.7A1.791,1.791,0,0,1,19.539,5.46Zm-14.7,1.73H17.7V5.46H4.838ZM17.7,17.568V8.919H4.838v8.649Zm-3.675-6.054h1.838V9.784H14.026Zm-3.675,0h1.838V9.784H10.351Z" transform="translate(-3 -2)"/>
</svg>
