<svg xmlns="http://www.w3.org/2000/svg" width="35.037" height="22.508" viewBox="0 0 35.037 22.508">
  <g id="Schedule_Icon" data-name="Schedule Icon" transform="translate(-118.599 -30.492)">
    <g id="Back_Icon" data-name="Back Icon" transform="translate(118.599 33.963)">
      <path id="_Color" data-name=" ↳Color" d="M9.6,1.829,7.772,0,0,7.783l7.772,7.783L9.6,13.736,3.666,7.783Z" transform="translate(0 0)" fill="#00422d"/>
    </g>
    <g id="date_range_black_24dp" transform="translate(132.314 30.491)">
      <path id="Path_94" data-name="Path 94" d="M0,0H21.323V21.284H0Z" transform="translate(0 1.225)" fill="none"/>
      <path id="Path_95" data-name="Path 95" d="M7.127,11.3H9.19V13.37H7.127ZM21.57,6.135V20.605a2.071,2.071,0,0,1-2.063,2.067H5.063A2.065,2.065,0,0,1,3,20.605L3.01,6.135A2.056,2.056,0,0,1,5.063,4.067H6.095V2H8.158V4.067h8.253V2h2.063V4.067h1.032A2.071,2.071,0,0,1,21.57,6.135ZM5.063,8.2H19.506V6.135H5.063Zm14.443,12.4V10.269H5.063V20.605ZM15.38,13.37h2.063V11.3H15.38Zm-4.127,0h2.063V11.3H11.253Z" transform="translate(-0.247 -1.999)" fill="#00422d"/>
    </g>
  </g>
</svg>
