<svg id="Component_65_1" data-name="Component 65 – 1" xmlns="http://www.w3.org/2000/svg" width="73" height="73" viewBox="0 0 73 73">
  <g id="Ellipse_175" data-name="Ellipse 175" fill="none" stroke="#328f83" stroke-width="1">
    <circle cx="36.5" cy="36.5" r="36.5" stroke="none"/>
    <circle cx="36.5" cy="36.5" r="36" fill="none"/>
  </g>
  <path id="Path_103" data-name="Path 103" d="M-5178.977-10688.231l.3,8.774-2.208-1.074s-.732-.311-1.291-.544a10.722,10.722,0,0,0-1.209-.4,12.336,12.336,0,0,0-2.375-.479,19,19,0,0,0-2.677-.115,8.032,8.032,0,0,0-3.125.415c-1.165.621-1.979.648-2.948,2.377-.012.1-.131,1.087-.177,1.49-.2,1.762,2.463,2.815,2.463,2.815s3.78,1.108,10.153,5.206a11.8,11.8,0,0,1,5.311,11.14c.026.064,1.138,4.737-6.047,8.865s-21.271-.375-21.271-.375l-.168-9.276a52.8,52.8,0,0,0,7.239,3.04,3.8,3.8,0,0,0,1.271.27c2.71,0,5.916,1.257,8.842-1.754s-2.133-5.151-2.133-5.151-10.818-4.5-12.3-6.413c-1.356-1.751-3.875-4.519-3.368-9.076a8.8,8.8,0,0,1,.181-.955c1.178-4.976,6.225-9.257,11.709-10S-5178.977-10688.231-5178.977-10688.231Z" transform="translate(5226.762 10705.62)" fill="rgba(50,143,131,0.26)"/>
  <path id="Path_212" data-name="Path 212" d="M-7223.429-4324.046v-12.011h-4.239v-2.958h11.753v2.958h-4.319v12.011Z" transform="translate(7258.668 4368.015)" fill="#328f83"/>
</svg>
