<svg id="SCTR_Submit_Icon" data-name="SCTR Submit Icon" xmlns="http://www.w3.org/2000/svg" width="44" height="42" viewBox="0 0 44 42">
  <g id="Path_102" data-name="Path 102" fill="none">
    <path d="M6,0H38a6,6,0,0,1,6,6V36a6,6,0,0,1-6,6H6a6,6,0,0,1-6-6V6A6,6,0,0,1,6,0Z" stroke="none"/>
    <path d="M 6 1 C 3.242988586425781 1 1 3.242988586425781 1 6 L 1 36 C 1 38.75701141357422 3.242988586425781 41 6 41 L 38 41 C 40.75701141357422 41 43 38.75701141357422 43 36 L 43 6 C 43 3.242988586425781 40.75701141357422 1 38 1 L 6 1 M 6 0 L 38 0 C 41.3137092590332 0 44 2.686290740966797 44 6 L 44 36 C 44 39.3137092590332 41.3137092590332 42 38 42 L 6 42 C 2.686290740966797 42 0 39.3137092590332 0 36 L 0 6 C 0 2.686290740966797 2.686290740966797 0 6 0 Z" stroke="none" fill="#ffb932"/>
  </g>
  <g id="Yes" transform="translate(14 13)">
    <rect id="Rectangle_460" data-name="Rectangle 460" width="16" height="16" transform="translate(0)" fill="none"/>
    <path id="Checkbox" d="M6.345,11.034,0,4.69,1.287,3.4,6.345,8.368,14.713,0,16,1.287Z" transform="translate(0 2)" fill="#ffb932"/>
  </g>
</svg>
