<svg xmlns="http://www.w3.org/2000/svg" width="27" height="25" viewBox="0 0 27 25">
  <path id="Settings_Icon" data-name="Settings Icon" d="M15.071,27H9.929a.663.663,0,0,1-.644-.573L8.8,22.849a9.279,9.279,0,0,1-2.17-1.316l-3.2,1.35a.672.672,0,0,1-.222.038.629.629,0,0,1-.565-.342L.076,17.905a.722.722,0,0,1,.162-.861l2.716-2.228a8.971,8.971,0,0,1-.1-1.316,8.806,8.806,0,0,1,.112-1.316L.253,9.957A.675.675,0,0,1,.093,9.1L2.664,4.421a.636.636,0,0,1,.558-.349.6.6,0,0,1,.229.045l3.2,1.35A9.585,9.585,0,0,1,8.82,4.151L9.3.573A.637.637,0,0,1,9.929,0h5.142a.653.653,0,0,1,.644.573L16.2,4.151a9.324,9.324,0,0,1,2.17,1.316l3.2-1.35a.672.672,0,0,1,.222-.038.629.629,0,0,1,.565.342L24.923,9.1a.721.721,0,0,1-.162.861l-2.716,2.228a8.819,8.819,0,0,1,.1,1.316,11.554,11.554,0,0,1-.081,1.316l2.684,2.228a.675.675,0,0,1,.16.861l-2.571,4.674a.636.636,0,0,1-.558.349.6.6,0,0,1-.229-.045l-3.2-1.35a9.5,9.5,0,0,1-2.17,1.316L15.7,26.427A.62.62,0,0,1,15.071,27ZM12.5,8.438A4.952,4.952,0,0,0,7.678,13.5,4.952,4.952,0,0,0,12.5,18.563,4.952,4.952,0,0,0,17.321,13.5,4.952,4.952,0,0,0,12.5,8.438Z" transform="translate(0 25) rotate(-90)" fill="#fff"/>
</svg>
