<svg xmlns="http://www.w3.org/2000/svg" width="23" height="24" viewBox="0 0 23 24">
  <g id="Settings_Icon_Not_Active" data-name="Settings Icon Not Active" transform="translate(-21 -173)">
    <g id="_Color" data-name=" ↳Color" transform="translate(21 173)" fill="none" stroke-miterlimit="10">
      <path d="M13.865,24H9.135a.6.6,0,0,1-.592-.51L8.1,20.31a8.6,8.6,0,0,1-2-1.17l-2.942,1.2a.638.638,0,0,1-.2.034.582.582,0,0,1-.519-.3L.07,15.916a.626.626,0,0,1,.149-.765l2.5-1.98A7.709,7.709,0,0,1,2.628,12a7.569,7.569,0,0,1,.1-1.17l-2.5-1.98a.586.586,0,0,1-.147-.765L2.451,3.93a.588.588,0,0,1,.514-.31.573.573,0,0,1,.21.04l2.943,1.2a8.883,8.883,0,0,1,2-1.17L8.558.51A.578.578,0,0,1,9.135,0h4.731a.594.594,0,0,1,.592.51L14.9,3.69a8.641,8.641,0,0,1,2,1.17l2.942-1.2a.638.638,0,0,1,.2-.034.582.582,0,0,1,.519.3L22.93,8.086a.625.625,0,0,1-.149.765l-2.5,1.98A7.579,7.579,0,0,1,20.371,12a9.927,9.927,0,0,1-.074,1.17l2.47,1.98a.586.586,0,0,1,.147.765L20.549,20.07a.588.588,0,0,1-.514.31.573.573,0,0,1-.21-.04l-2.943-1.2a8.8,8.8,0,0,1-2,1.17l-.444,3.18A.563.563,0,0,1,13.865,24ZM11.5,7.5A4.5,4.5,0,1,0,15.936,12,4.473,4.473,0,0,0,11.5,7.5Z" stroke="none"/>
      <path d="M 13.50054454803467 23.00000190734863 L 13.97415733337402 19.60416221618652 L 14.50396728515625 19.38554191589355 C 15.10236740112305 19.13863182067871 15.6971378326416 18.7893123626709 16.27174758911133 18.3473014831543 L 16.72713851928711 17.99699211120605 L 19.85258483886719 19.27178001403809 L 21.87572860717773 15.71814060211182 L 19.23882865905762 13.6039514541626 L 19.30383682250977 13.05333232879639 C 19.34918785095215 12.6691722869873 19.37123680114746 12.32480144500732 19.37123680114746 12.00056171417236 C 19.37123680114746 11.65114212036133 19.34545707702637 11.30963230133057 19.29460716247559 10.98554229736328 L 19.20418739318848 10.40919208526611 L 21.88991355895996 8.280689239501953 L 19.8670539855957 4.728250026702881 L 16.74104690551758 6.003731727600098 L 16.28510856628418 5.651031970977783 C 15.71460723876953 5.209712028503418 15.13650798797607 4.87041187286377 14.51776790618896 4.613741874694824 L 13.98949813842773 4.394611835479736 L 13.51607322692871 1.000001907348633 L 9.499171257019043 1.000001907348633 L 9.025688171386719 4.39497184753418 L 8.496967315673828 4.613951683044434 C 7.898127555847168 4.861971855163574 7.302647590637207 5.211691856384277 6.727047920227051 5.653401851654053 L 6.271867752075195 6.002701759338379 L 3.147168874740601 4.728233814239502 L 1.124930500984192 8.281250953674316 L 3.809947729110718 10.40919208526611 L 3.719527721405029 10.98554229736328 C 3.658257722854614 11.37604236602783 3.628477811813354 11.70805168151855 3.628477811813354 12.00056171417236 C 3.628477811813354 12.34409236907959 3.654997825622559 12.69525146484375 3.705177783966064 13.01605224609375 L 3.79527759552002 13.59214210510254 L 1.109836459159851 15.72039985656738 L 3.132630109786987 19.27176094055176 L 6.258657932281494 17.99626159667969 L 6.714597702026367 18.34896278381348 C 7.287797927856445 18.79238128662109 7.865497589111328 19.13151168823242 8.480708122253418 19.3857421875 L 9.010077476501465 19.60450172424316 L 9.483641624450684 23.00000190734863 L 13.50054454803467 23.00000190734863 M 11.49985790252686 6.500492095947266 C 14.49710750579834 6.500492095947266 16.935546875 8.967811584472656 16.935546875 12.00056171417236 C 16.935546875 15.03331184387207 14.49710750579834 17.50063133239746 11.49985790252686 17.50063133239746 C 8.502607345581055 17.50063133239746 6.064167499542236 15.03331184387207 6.064167499542236 12.00056171417236 C 6.064167499542236 8.967811584472656 8.502607345581055 6.500492095947266 11.49985790252686 6.500492095947266 M 13.8651876449585 24.00000190734863 L 9.134528160095215 24.00000190734863 C 8.841107368469238 24.00000190734863 8.603127479553223 23.79520225524902 8.542357444763184 23.49037170410156 L 8.098787307739258 20.3099422454834 C 7.399827480316162 20.0211009979248 6.746667861938477 19.6380615234375 6.102727890014648 19.13992118835449 L 3.160757780075073 20.34032249450684 C 3.094507694244385 20.36272239685059 3.025657653808594 20.37407112121582 2.956077814102173 20.37407112121582 C 2.734727621078491 20.37407112121582 2.540537595748901 20.26052284240723 2.43663763999939 20.0703125 L 0.07019770890474319 15.91562175750732 C -0.06434229016304016 15.65742206573486 -0.0004522891249507666 15.32855224609375 0.2187877148389816 15.15061187744141 L 2.717187643051147 13.17058181762695 C 2.658997774124146 12.79854202270508 2.628477811813354 12.39354228973389 2.628477811813354 12.00056171417236 C 2.628477811813354 11.65556144714355 2.662217617034912 11.27284145355225 2.731607675552368 10.83055210113525 L 0.2332077175378799 8.85051155090332 C -0.002612289041280746 8.670802116394043 -0.06327228993177414 8.356222152709961 0.08571770787239075 8.085501670837402 L 2.451047658920288 3.929682016372681 C 2.555487632751465 3.738511800765991 2.752327680587769 3.619731903076172 2.964777708053589 3.619731903076172 C 3.036957740783691 3.619731903076172 3.10773777961731 3.633171796798706 3.175177812576294 3.659681797027588 L 6.118257522583008 4.860072135925293 C 6.763497829437256 4.364922046661377 7.435467720031738 3.971221923828125 8.114317893981934 3.690061807632446 L 8.557888031005859 0.5096319317817688 C 8.602367401123047 0.2095619142055511 8.8394775390625 1.9073486328125e-06 9.134528160095215 1.9073486328125e-06 L 13.8651876449585 1.9073486328125e-06 C 14.16453742980957 1.9073486328125e-06 14.41358757019043 0.2143319100141525 14.45735740661621 0.5096319317817688 L 14.90091800689697 3.690061807632446 C 15.60294723510742 3.981271982192993 16.2560977935791 4.364301681518555 16.8969783782959 4.860072135925293 L 19.83895683288574 3.659681797027588 C 19.90520858764648 3.637281894683838 19.97405815124512 3.625931978225708 20.04363822937012 3.625931978225708 C 20.26498794555664 3.625931978225708 20.45917701721191 3.739481925964355 20.56308746337891 3.929682016372681 L 22.92952728271484 8.085501670837402 C 23.06447792053223 8.343372344970703 23.00059700012207 8.672231674194336 22.78092765808105 8.85051155090332 L 20.28252792358398 10.83055210113525 C 20.3415470123291 11.20675182342529 20.37123680114746 11.60079193115234 20.37123680114746 12.00056171417236 C 20.37123680114746 12.36435222625732 20.34693717956543 12.74707221984863 20.29693794250488 13.17058181762695 L 22.76650810241699 15.15061187744141 C 23.00231742858887 15.33031177520752 23.06298828125 15.64491176605225 22.91399765014648 15.91562175750732 L 20.54866790771484 20.0703125 C 20.44424819946289 20.26148223876953 20.24739837646484 20.38026237487793 20.03493690490723 20.38027191162109 C 19.9627685546875 20.38027191162109 19.89198684692383 20.3668327331543 19.82453727722168 20.34032249450684 L 16.8814582824707 19.13992118835449 C 16.23659706115723 19.63597106933594 15.5646276473999 20.02967262268066 14.88539791107178 20.3099422454834 L 14.44182777404785 23.49037170410156 C 14.41348743438721 23.78565216064453 14.1709680557251 24.00000190734863 13.8651876449585 24.00000190734863 Z M 11.49985790252686 7.500492095947266 C 9.054007530212402 7.500492095947266 7.064167499542236 9.519211769104004 7.064167499542236 12.00056171417236 C 7.064167499542236 14.48191165924072 9.054007530212402 16.50063133239746 11.49985790252686 16.50063133239746 C 13.94570732116699 16.50063133239746 15.93554782867432 14.48191165924072 15.93554782867432 12.00056171417236 C 15.93554782867432 9.519211769104004 13.94570732116699 7.500492095947266 11.49985790252686 7.500492095947266 Z" stroke="none" fill="#9db5c2"/>
    </g>
  </g>
</svg>
