<svg xmlns="http://www.w3.org/2000/svg" xmlns:xlink="http://www.w3.org/1999/xlink" width="36" height="36" viewBox="0 0 36 36">
  <defs>
    <filter id="Rectangle_755" x="0" y="0" width="36" height="36" filterUnits="userSpaceOnUse">
      <feOffset dy="3" input="SourceAlpha"/>
      <feGaussianBlur stdDeviation="3" result="blur"/>
      <feFlood flood-opacity="0.161"/>
      <feComposite operator="in" in2="blur"/>
      <feComposite in="SourceGraphic"/>
    </filter>
  </defs>
  <g id="Shift_View_Icon_Alt_2" data-name="Shift View Icon Alt 2" transform="translate(9 6)">
    <g transform="matrix(1, 0, 0, 1, -9, -6)" filter="url(#Rectangle_755)">
      <rect id="Rectangle_755-2" data-name="Rectangle 755" width="18" height="18" rx="4" transform="translate(9 6)" fill="#00bcff"/>
    </g>
    <g id="Group_279" data-name="Group 279" transform="translate(-641.5 -466.5)">
      <circle id="Ellipse_180" data-name="Ellipse 180" cx="1.5" cy="1.5" r="1.5" transform="translate(643 469.5)" fill="#fff"/>
      <path id="Path_216" data-name="Path 216" d="M0,0H4.483" transform="translate(645.52 471)" fill="none" stroke="#fff" stroke-width="1"/>
      <circle id="Ellipse_181" data-name="Ellipse 181" cx="1.5" cy="1.5" r="1.5" transform="translate(649 469.5)" fill="#fff"/>
      <path id="Path_217" data-name="Path 217" d="M0,0H4.483" transform="translate(648.511 475.958)" fill="none" stroke="#fff" stroke-width="1"/>
      <circle id="Ellipse_182" data-name="Ellipse 182" cx="1.5" cy="1.5" r="1.5" transform="translate(646 474.5)" fill="#fff"/>
      <circle id="Ellipse_183" data-name="Ellipse 183" cx="1.5" cy="1.5" r="1.5" transform="translate(652 474.5)" fill="#fff"/>
      <path id="Path_218" data-name="Path 218" d="M0,0H4.483" transform="translate(650.753 481)" fill="none" stroke="#fff" stroke-width="1"/>
      <circle id="Ellipse_184" data-name="Ellipse 184" cx="1.5" cy="1.5" r="1.5" transform="translate(648 479.5)" fill="#fff"/>
      <circle id="Ellipse_185" data-name="Ellipse 185" cx="1.5" cy="1.5" r="1.5" transform="translate(655 479.5)" fill="#fff"/>
    </g>
  </g>
</svg>
