<svg id="Team_Icon" data-name="Team Icon" xmlns="http://www.w3.org/2000/svg" width="31.103" height="31.103" viewBox="0 0 31.103 31.103">
  <rect id="Rectangle_855" data-name="Rectangle 855" width="31.103" height="31.103" fill="rgba(0,0,0,0)"/>
  <g id="Group_473" data-name="Group 473" transform="translate(0 7.776)">
    <path id="Path_233" data-name="Path 233" d="M15.552,14.748a13.751,13.751,0,0,1,5.495,1.166,3.868,3.868,0,0,1,2.281,3.538v2.1H7.776V19.465a3.84,3.84,0,0,1,2.281-3.538A13.53,13.53,0,0,1,15.552,14.748Zm-10.368.324A2.592,2.592,0,1,0,2.592,12.48,2.6,2.6,0,0,0,5.184,15.072ZM6.648,16.5a9.049,9.049,0,0,0-1.464-.13,9.008,9.008,0,0,0-3.6.752A2.606,2.606,0,0,0,0,19.517v2.035H5.832V19.465A5.83,5.83,0,0,1,6.648,16.5Zm19.271-1.426a2.592,2.592,0,1,0-2.592-2.592A2.6,2.6,0,0,0,25.919,15.072ZM31.1,19.517a2.606,2.606,0,0,0-1.581-2.4,8.81,8.81,0,0,0-5.067-.622,5.83,5.83,0,0,1,.816,2.968v2.086H31.1ZM15.552,6a3.888,3.888,0,1,1-3.888,3.888A3.883,3.883,0,0,1,15.552,6Z" transform="translate(0 -6)" fill="#fff"/>
  </g>
</svg>
