<svg id="Users_Icon" data-name="Users Icon" xmlns="http://www.w3.org/2000/svg" width="44" height="42" viewBox="0 0 44 42">
  <g id="Rectangle_496" data-name="Rectangle 496" fill="none" stroke="#00bcff" stroke-width="2">
    <rect width="44" height="42" rx="6" stroke="none"/>
    <rect x="1" y="1" width="42" height="40" rx="5" fill="none"/>
  </g>
  <g id="Group_200" data-name="Group 200" transform="translate(-35 -219)">
    <path id="Union_20" data-name="Union 20" d="M0,13V11.375c0-1.788,2.925-3.25,6.5-3.25S13,9.587,13,11.375V13ZM3.25,3.25A3.25,3.25,0,1,1,6.5,6.5,3.25,3.25,0,0,1,3.25,3.25Z" transform="translate(42 241)" fill="#00bcff"/>
    <path id="Union_21" data-name="Union 21" d="M0,13V11.375c0-1.788,2.925-3.25,6.5-3.25S13,9.587,13,11.375V13ZM3.25,3.25A3.25,3.25,0,1,1,6.5,6.5,3.25,3.25,0,0,1,3.25,3.25Z" transform="translate(60 241)" fill="#00bcff"/>
    <path id="Union_22" data-name="Union 22" d="M0,13V11.375c0-1.788,2.925-3.25,6.5-3.25S13,9.587,13,11.375V13ZM3.25,3.25A3.25,3.25,0,1,1,6.5,6.5,3.25,3.25,0,0,1,3.25,3.25Z" transform="translate(51 225)" fill="#00bcff"/>
  </g>
</svg>
