<svg xmlns="http://www.w3.org/2000/svg" width="36.605" height="25.832" viewBox="0 0 36.605 25.832">
  <path id="Add_Icon" data-name="Add Icon" d="M68.7,290.848v-5.408H63.294v-2.5H68.7v-5.408h2.5v5.408h5.408v2.5H71.2v5.408Zm-15.391-3.369a5.984,5.984,0,1,1,4.492-1.747A6.081,6.081,0,0,1,53.311,287.479ZM40,300.832v-3.91a4.947,4.947,0,0,1,.728-2.641,4.407,4.407,0,0,1,2.1-1.768,31.954,31.954,0,0,1,5.546-1.934,21.854,21.854,0,0,1,9.844,0,32.123,32.123,0,0,1,5.532,1.934,4.82,4.82,0,0,1,2.121,1.789,4.742,4.742,0,0,1,.749,2.621v3.91Zm2.5-2.5h21.63v-1.414a2.369,2.369,0,0,0-.374-1.269,2.3,2.3,0,0,0-1-.894,24.577,24.577,0,0,0-4.992-1.809,21.251,21.251,0,0,0-4.451-.437,21.55,21.55,0,0,0-4.472.437,24.4,24.4,0,0,0-5.012,1.809,2.178,2.178,0,0,0-.978.894,2.471,2.471,0,0,0-.354,1.269Zm10.815-13.353a3.628,3.628,0,1,0-2.683-1.061A3.636,3.636,0,0,0,53.311,284.983ZM53.311,281.24ZM53.311,298.336Z" transform="translate(-40 -275)" fill="#fff"/>
</svg>
