<svg xmlns="http://www.w3.org/2000/svg" width="34.017" height="18.898" viewBox="0 0 34.017 18.898">
  <path id="List_Icon" data-name="List Icon" d="M121.409,394.9a1.352,1.352,0,0,1-1.007-.41,1.394,1.394,0,0,1-.4-1.016,1.352,1.352,0,0,1,.41-1.008,1.394,1.394,0,0,1,1.016-.4,1.352,1.352,0,0,1,1.008.41,1.394,1.394,0,0,1,.4,1.016,1.352,1.352,0,0,1-.41,1.008A1.4,1.4,0,0,1,121.409,394.9Zm0-8.032a1.352,1.352,0,0,1-1.007-.41,1.394,1.394,0,0,1-.4-1.016,1.352,1.352,0,0,1,.41-1.008,1.394,1.394,0,0,1,1.016-.4,1.352,1.352,0,0,1,1.008.41,1.4,1.4,0,0,1,.4,1.016,1.352,1.352,0,0,1-.41,1.007A1.394,1.394,0,0,1,121.409,386.866Zm0-8.032a1.352,1.352,0,0,1-1.007-.41,1.394,1.394,0,0,1-.4-1.016,1.352,1.352,0,0,1,.41-1.008,1.394,1.394,0,0,1,1.016-.4,1.352,1.352,0,0,1,1.008.41,1.394,1.394,0,0,1,.4,1.016,1.352,1.352,0,0,1-.41,1.008A1.4,1.4,0,0,1,121.409,378.835Zm6.623,16.063v-2.835h25.985V394.9Zm0-8.032v-2.835h25.985v2.835Zm0-8.032V376h25.985v2.835Z" transform="translate(-120 -376)" fill="#fff"/>
</svg>
