<svg xmlns="http://www.w3.org/2000/svg" width="32.549" height="24.063" viewBox="0 0 32.549 24.063">
  <path id="Remove_Icon" data-name="Remove Icon" d="M63.559,284.261v-2.325h8.99v2.325ZM52.4,286.625A5.575,5.575,0,1,1,56.584,285,5.665,5.665,0,0,1,52.4,286.625ZM40,299.063V295.42a4.609,4.609,0,0,1,.678-2.461,4.106,4.106,0,0,1,1.957-1.647,29.77,29.77,0,0,1,5.167-1.8,20.356,20.356,0,0,1,9.17,0,29.927,29.927,0,0,1,5.154,1.8,4.489,4.489,0,0,1,1.976,1.666,4.418,4.418,0,0,1,.7,2.441v3.642Zm2.325-2.325H62.474V295.42a2.206,2.206,0,0,0-.349-1.182,2.144,2.144,0,0,0-.93-.833,22.9,22.9,0,0,0-4.65-1.686,19.8,19.8,0,0,0-4.146-.407,20.075,20.075,0,0,0-4.165.407,22.733,22.733,0,0,0-4.669,1.686,2.029,2.029,0,0,0-.911.833,2.3,2.3,0,0,0-.329,1.182ZM52.4,284.3a3.38,3.38,0,1,0-2.5-.988A3.388,3.388,0,0,0,52.4,284.3ZM52.4,280.812ZM52.4,296.738Z" transform="translate(-40 -275)" fill="#fff"/>
</svg>
