<svg xmlns="http://www.w3.org/2000/svg" width="26.719" height="14.844" viewBox="0 0 26.719 14.844">
  <path id="List_Icon" data-name="List Icon" d="M121.107,390.844a1.062,1.062,0,0,1-.791-.322,1.1,1.1,0,0,1-.315-.8,1.062,1.062,0,0,1,.322-.791,1.1,1.1,0,0,1,.8-.315,1.062,1.062,0,0,1,.791.322,1.1,1.1,0,0,1,.315.8,1.062,1.062,0,0,1-.322.791A1.1,1.1,0,0,1,121.107,390.844Zm0-6.309a1.062,1.062,0,0,1-.791-.322,1.1,1.1,0,0,1-.315-.8,1.062,1.062,0,0,1,.322-.791,1.1,1.1,0,0,1,.8-.315,1.062,1.062,0,0,1,.791.322,1.1,1.1,0,0,1,.315.8,1.062,1.062,0,0,1-.322.791A1.1,1.1,0,0,1,121.107,384.535Zm0-6.309a1.062,1.062,0,0,1-.791-.322,1.1,1.1,0,0,1-.315-.8,1.062,1.062,0,0,1,.322-.791,1.1,1.1,0,0,1,.8-.315,1.062,1.062,0,0,1,.791.322,1.1,1.1,0,0,1,.315.8,1.062,1.062,0,0,1-.322.791A1.1,1.1,0,0,1,121.107,378.227Zm5.2,12.617v-2.227h20.41v2.227Zm0-6.309v-2.227h20.41v2.227Zm0-6.309V376h20.41v2.227Z" transform="translate(-120 -376)" fill="#fff"/>
</svg>
