<svg xmlns="http://www.w3.org/2000/svg" width="18.835" height="2.825" viewBox="0 0 18.835 2.825">
  <path id="Other_Actions_Icon" data-name="Other Actions Icon" d="M161.408,528a1.351,1.351,0,0,0-1,.416,1.371,1.371,0,0,0-.412,1,1.351,1.351,0,0,0,.416,1,1.371,1.371,0,0,0,1,.412,1.351,1.351,0,0,0,1-.416,1.371,1.371,0,0,0,.412-1,1.351,1.351,0,0,0-.416-1A1.371,1.371,0,0,0,161.408,528Zm8,0a1.35,1.35,0,0,0-1,.416,1.371,1.371,0,0,0-.412,1,1.35,1.35,0,0,0,.416,1,1.371,1.371,0,0,0,1,.412,1.351,1.351,0,0,0,1-.416,1.371,1.371,0,0,0,.412-1,1.35,1.35,0,0,0-.416-1A1.371,1.371,0,0,0,169.413,528Zm8,0a1.351,1.351,0,0,0-1,.416,1.371,1.371,0,0,0-.412,1,1.351,1.351,0,0,0,.416,1,1.371,1.371,0,0,0,1,.412,1.35,1.35,0,0,0,1-.416,1.371,1.371,0,0,0,.412-1,1.35,1.35,0,0,0-.416-1A1.371,1.371,0,0,0,177.418,528Z" transform="translate(-160 -528)"/>
</svg>
