<svg xmlns="http://www.w3.org/2000/svg" width="29.598" height="21.881" viewBox="0 0 29.598 21.881">
  <path id="Remove_Icon" data-name="Remove Icon" d="M61.423,283.421v-2.114H69.6v2.114Zm-10.148,2.149a5.069,5.069,0,1,1,3.805-1.48A5.151,5.151,0,0,1,51.275,285.571ZM40,296.881v-3.312a4.191,4.191,0,0,1,.617-2.237,3.734,3.734,0,0,1,1.779-1.5,27.072,27.072,0,0,1,4.7-1.638,18.511,18.511,0,0,1,8.339,0,27.215,27.215,0,0,1,4.686,1.638,4.083,4.083,0,0,1,1.8,1.515,4.017,4.017,0,0,1,.634,2.22v3.312Zm2.114-2.114H60.436v-1.2a2.006,2.006,0,0,0-.317-1.075,1.95,1.95,0,0,0-.846-.758,20.821,20.821,0,0,0-4.228-1.533,18,18,0,0,0-3.77-.37,18.255,18.255,0,0,0-3.788.37,20.673,20.673,0,0,0-4.246,1.533,1.845,1.845,0,0,0-.828.758,2.093,2.093,0,0,0-.3,1.075Zm9.161-11.31a3.073,3.073,0,1,0-2.273-.9A3.08,3.08,0,0,0,51.275,283.456ZM51.275,280.285ZM51.275,294.767Z" transform="translate(-40 -275)" fill="#fff"/>
</svg>
