<svg xmlns="http://www.w3.org/2000/svg" width="48.969" height="24.484" viewBox="0 0 48.969 24.484">
  <path id="White_Team_Icon" data-name="White Team Icon" d="M24.484,19.772a21.65,21.65,0,0,1,8.651,1.836,6.089,6.089,0,0,1,3.591,5.57v3.305H12.242V27.2a6.046,6.046,0,0,1,3.591-5.57A21.3,21.3,0,0,1,24.484,19.772Zm-16.323.51A4.081,4.081,0,1,0,4.081,16.2,4.093,4.093,0,0,0,8.161,20.283Zm2.306,2.244a14.247,14.247,0,0,0-2.306-.2,14.182,14.182,0,0,0-5.672,1.183A4.1,4.1,0,0,0,0,27.281v3.2H9.182V27.2A9.179,9.179,0,0,1,10.467,22.527Zm30.34-2.244A4.081,4.081,0,1,0,36.727,16.2,4.093,4.093,0,0,0,40.807,20.283Zm8.161,7a4.1,4.1,0,0,0-2.489-3.775,13.871,13.871,0,0,0-7.978-.979A9.179,9.179,0,0,1,39.787,27.2v3.285h9.182ZM24.484,6a6.121,6.121,0,1,1-6.121,6.121A6.113,6.113,0,0,1,24.484,6Z" transform="translate(0 -6)" fill="#fff"/>
</svg>
