<svg id="Schedule_Icon" data-name="Schedule Icon" xmlns="http://www.w3.org/2000/svg" width="29.754" height="31.119" viewBox="0 0 29.754 31.119">
  <path id="Path_95" data-name="Path 95" d="M9.612,16h3.306v3.112H9.612Zm23.142-7.78V30.007a3.223,3.223,0,0,1-3.306,3.112H6.306A3.212,3.212,0,0,1,3,30.007L3.017,8.224A3.2,3.2,0,0,1,6.306,5.112H7.959V2h3.306V5.112H24.489V2h3.306V5.112h1.653A3.223,3.223,0,0,1,32.754,8.224ZM6.306,11.336H29.448V8.224H6.306ZM29.448,30.007V14.448H6.306v15.56ZM22.836,19.116h3.306V16H22.836Zm-6.612,0H19.53V16H16.224Z" transform="translate(-3 -2)" fill="#fff"/>
</svg>
