<svg id="Week_View_Icon_Active" data-name="Week View Icon Active" xmlns="http://www.w3.org/2000/svg" width="47.994" height="47.994" viewBox="0 0 47.994 47.994">
  <path id="Path_94" data-name="Path 94" d="M0,0H47.994V47.994H0Z" fill="none"/>
  <path id="Path_95" data-name="Path 95" d="M11,20h4v4H11ZM39,10V38a4.011,4.011,0,0,1-4,4H7a4,4,0,0,1-4-4l.02-28A3.981,3.981,0,0,1,7,6H9V2h4V6H29V2h4V6h2A4.011,4.011,0,0,1,39,10ZM7,14H35V10H7ZM35,38V18H7V38ZM27,24h4V20H27Zm-8,0h4V20H19Z" transform="translate(2.999 1.999)" fill="#328f83"/>
</svg>
